<svg width="18" height="17" viewBox="0 0 18 17" fill="none" xmlns="http://www.w3.org/2000/svg">
<path d="M17.3398 8.22215L9.29492 0.18309C9.237 0.125051 9.16819 0.0790049 9.09245 0.0475881C9.01671 0.0161712 8.93551 0 8.85352 0C8.77152 0 8.69032 0.0161712 8.61458 0.0475881C8.53884 0.0790049 8.47003 0.125051 8.41211 0.18309L0.367188 8.22215C0.132812 8.45653 0 8.77489 0 9.10692C0 9.79637 0.560547 10.3569 1.25 10.3569H2.09766V16.0932C2.09766 16.4389 2.37695 16.7182 2.72266 16.7182H7.60352V12.3432H9.79102V16.7182H14.9844C15.3301 16.7182 15.6094 16.4389 15.6094 16.0932V10.3569H16.457C16.7891 10.3569 17.1074 10.2261 17.3418 9.98973C17.8281 9.50145 17.8281 8.71043 17.3398 8.22215Z" fill="white"/>
</svg>
