<svg width="20" height="16" viewBox="0 0 20 16" fill="none" xmlns="http://www.w3.org/2000/svg">
    <rect x="4.5" y="0.5" width="11" height="15" rx="1.5" fill="transparent" stroke="white"/>
    <path d="M15 2.41096C15 2.18399 15.184 2 15.411 2H19.589C19.816 2 20 2.18399 20 2.41096C20 2.63793 19.816 2.82192 19.589 2.82192H15.411C15.184 2.82192 15 2.63793 15 2.41096Z" fill="white"/>
    <path d="M0 2.41096C0 2.18399 0.183993 2 0.410959 2H4.58904C4.81601 2 5 2.18399 5 2.41096C5 2.63793 4.81601 2.82192 4.58904 2.82192H0.410959C0.183993 2.82192 0 2.63793 0 2.41096Z" fill="white"/>
    <path d="M0 5.41096C0 5.18399 0.183993 5 0.410959 5H4.58904C4.81601 5 5 5.18399 5 5.41096C5 5.63793 4.81601 5.82192 4.58904 5.82192H0.410959C0.183993 5.82192 0 5.63793 0 5.41096Z" fill="white"/>
    <path d="M0 8.41096C0 8.18399 0.183993 8 0.410959 8H4.58904C4.81601 8 5 8.18399 5 8.41096C5 8.63793 4.81601 8.82192 4.58904 8.82192H0.410959C0.183993 8.82192 0 8.63793 0 8.41096Z" fill="white"/>
    <path d="M0 11.411C0 11.184 0.183993 11 0.410959 11H4.58904C4.81601 11 5 11.184 5 11.411C5 11.6379 4.81601 11.8219 4.58904 11.8219H0.410959C0.183993 11.8219 0 11.6379 0 11.411Z" fill="white"/>
    <path d="M0 14.411C0 14.184 0.183993 14 0.410959 14H4.58904C4.81601 14 5 14.184 5 14.411C5 14.6379 4.81601 14.8219 4.58904 14.8219H0.410959C0.183993 14.8219 0 14.6379 0 14.411Z" fill="white"/>
    <path d="M15 14.411C15 14.184 15.184 14 15.411 14H19.589C19.816 14 20 14.184 20 14.411C20 14.6379 19.816 14.8219 19.589 14.8219H15.411C15.184 14.8219 15 14.6379 15 14.411Z" fill="white"/>
    <path d="M15 5.41096C15 5.18399 15.184 5 15.411 5H19.589C19.816 5 20 5.18399 20 5.41096C20 5.63793 19.816 5.82192 19.589 5.82192H15.411C15.184 5.82192 15 5.63793 15 5.41096Z" fill="white"/>
    <path d="M15 8.41096C15 8.18399 15.184 8 15.411 8H19.589C19.816 8 20 8.18399 20 8.41096C20 8.63793 19.816 8.82192 19.589 8.82192H15.411C15.184 8.82192 15 8.63793 15 8.41096Z" fill="white"/>
    <path d="M15 11.411C15 11.184 15.184 11 15.411 11H19.589C19.816 11 20 11.184 20 11.411C20 11.6379 19.816 11.8219 19.589 11.8219H15.411C15.184 11.8219 15 11.6379 15 11.411Z" fill="white"/>
    <path d="M7.81689 3.36987C7.81689 3.54814 7.66039 3.73974 7.40844 3.73974C7.15649 3.73974 6.99999 3.54814 6.99999 3.36987C6.99999 3.19161 7.15649 3.00001 7.40844 3.00001C7.66039 3.00001 7.81689 3.19161 7.81689 3.36987Z" fill="#2F364F" stroke="white" stroke-width="2"/>
</svg>
