<svg width="11" height="21" viewBox="0 0 11 21" fill="none" xmlns="http://www.w3.org/2000/svg">
    <path d="M9.32862 0.0873775H9.16845V0.0634703C9.16845 0.0283501 9.13711 0 9.09881 0H7.46225C7.42371 0 7.39261 0.0283501 7.39261 0.0634703V0.0873775H1.79488C0.871671 0.0873775 0.123496 0.76926 0.123496 1.61066V2.96893H0.0928544C0.0415524 2.96893 0 3.0068 0 3.05356V3.85751C0 3.90427 0.0415524 3.94214 0.0928544 3.94214H0.123496V4.95428H0.0547841C0.0287849 4.95428 0.00766049 4.9729 0.00766049 4.99617V5.63511C0.00766049 5.65838 0.0287849 5.677 0.0547841 5.677H0.123496V6.68914H0.0624446C0.0364454 6.68914 0.015321 6.70775 0.015321 6.73103V7.36996C0.015321 7.39323 0.0364454 7.41185 0.0624446 7.41185H0.123496V19.4767C0.123496 20.3179 0.871671 21 1.79488 21H9.32862C10.2518 21 11 20.3179 11 19.4767V1.61066C11 0.76926 10.2518 0.0873775 9.32862 0.0873775ZM5.56175 0.936187C5.67714 0.936187 5.77067 1.02143 5.77067 1.1266C5.77067 1.23177 5.67714 1.31701 5.56175 1.31701C5.44635 1.31701 5.35283 1.23177 5.35283 1.1266C5.35283 1.02143 5.44635 0.936187 5.56175 0.936187ZM4.55776 1.88824C4.55776 1.77139 4.66169 1.67667 4.7899 1.67667H6.3336C6.46179 1.67667 6.56574 1.77139 6.56574 1.88824V1.91469C6.56574 2.03154 6.46179 2.12626 6.3336 2.12626H4.7899C4.66169 2.12626 4.55776 2.03154 4.55776 1.91469V1.88824ZM5.56175 20.3793C5.00191 20.3793 4.54808 19.9656 4.54808 19.4554C4.54808 18.9452 5.00191 18.5316 5.56175 18.5316C6.12157 18.5316 6.57542 18.9452 6.57542 19.4554C6.57542 19.9656 6.12157 20.3793 5.56175 20.3793ZM10.2973 18.1367C10.2973 18.16 10.2765 18.179 10.2509 18.179H0.8726C0.846972 18.179 0.826172 18.16 0.826172 18.1367V3.03073C0.826172 3.00737 0.846972 2.98842 0.8726 2.98842H10.2509C10.2765 2.98842 10.2973 3.00737 10.2973 3.03073V18.1367Z" fill="white"/>
</svg>
