<svg width="19" height="19" viewBox="0 0 19 19" fill="none" xmlns="http://www.w3.org/2000/svg">
<g clip-path="url(#clip0_260_1321)">
<path d="M7.87689 14.4811L5.63803 16.72C4.70984 17.6482 3.20672 17.6482 2.27931 16.7202C1.35172 15.7926 1.35172 14.2893 2.27913 13.3619L6.75762 8.88341C7.68503 7.95597 9.1883 7.95597 10.1157 8.88341C10.4249 9.19257 10.9261 9.19257 11.2353 8.88341C11.5445 8.57425 11.5445 8.07297 11.2353 7.76381C9.68954 6.21805 7.18379 6.21805 5.63803 7.76381L1.15957 12.2423C-0.386197 13.788 -0.386197 16.2938 1.15957 17.8396C2.70514 19.3861 5.21108 19.3861 6.75766 17.8396L8.99652 15.6007C9.30568 15.2915 9.30568 14.7903 8.99652 14.4811C8.68736 14.1719 8.18605 14.172 7.87689 14.4811Z" fill="white"/>
<path d="M17.8404 1.15932C16.2946 -0.386441 13.788 -0.386441 12.2423 1.15932L9.55614 3.84546C9.24698 4.15462 9.24698 4.6559 9.55614 4.96506C9.8653 5.27422 10.3666 5.27422 10.6757 4.96506L13.3619 2.27892C14.2893 1.35148 15.7933 1.35148 16.7208 2.27892C17.6482 3.20632 17.6482 4.7096 16.7208 5.637L11.795 10.5628C10.8676 11.4903 9.36432 11.4903 8.43692 10.5628C8.12776 10.2537 7.62648 10.2537 7.31732 10.5628C7.00816 10.872 7.00816 11.3733 7.31732 11.6824C8.86308 13.2282 11.3688 13.2282 12.9146 11.6824L17.8404 6.75664C19.3861 5.21087 19.3861 2.70509 17.8404 1.15932Z" fill="white"/>
</g>
<defs>
<clipPath id="clip0_260_1321">
<rect width="19" height="19" fill="white"/>
</clipPath>
</defs>
</svg>
