<svg width="19" height="19" viewBox="0 0 19 19" fill="none" xmlns="http://www.w3.org/2000/svg">
    <path d="M18.75 6.25H12.5V0H18.75V6.25ZM14.0625 4.6875H17.1875V1.5625H14.0625V4.6875Z" fill="white"/>
    <path d="M10.1562 8.59375V3.90625H3.90625V14.8438H14.8438V8.59375H10.1562ZM5.46875 5.46875H8.59375V8.59375H5.46875V5.46875ZM8.59375 13.2812H5.46875V10.1562H8.59375V13.2812ZM13.2812 13.2812H10.1562V10.1562H13.2812V13.2812Z" fill="white"/>
    <path d="M17.1875 18.75H1.5625C1.14823 18.7496 0.751039 18.5848 0.458103 18.2919C0.165167 17.999 0.000413654 17.6018 0 17.1875V1.5625C0.000413654 1.14823 0.165167 0.751039 0.458103 0.458103C0.751039 0.165167 1.14823 0.000413654 1.5625 0H9.375V1.5625H1.5625V17.1875H17.1875V9.375H18.75V17.1875C18.7496 17.6018 18.5848 17.999 18.2919 18.2919C17.999 18.5848 17.6018 18.7496 17.1875 18.75Z" fill="white"/>
</svg>
