<svg width="900" height="770" viewBox="0 0 900 770"  xmlns="http://www.w3.org/2000/svg">
    <path id="svg_1" fill="white" d="m802.46228,131.07832l-136,0l-32.4,-90.8c-2.238,-6.213 -6.34,-11.584 -11.746,-15.378c-5.405,-3.795 -11.85,-5.828 -18.454,-5.822l-306.8,0c-13.5,0 -25.6,8.5 -30.1,21.2l-32.5,90.8l-136,0c-44.2,0 -80,35.8 -80,80l0,456c0,44.2 35.8,80 80,80l704,0c44.2,0 80,-35.8 80,-80l0,-456c0,-44.2 -35.8,-80 -80,-80zm8,536c0,4.4 -3.6,8 -8,8l-704,0c-4.4,0 -8,-3.6 -8,-8l0,-456c0,-4.4 3.6,-8 8,-8l186.7,0l17.1,-47.8l22.9,-64.2l250.5,0l22.9,64.2l17.1,47.8l186.8,0c4.4,0 8,3.6 8,8l0,456zm-360,-400c-88.4,0 -160,71.6 -160,160c0,88.4 71.6,160 160,160c88.4,0 160,-71.6 160,-160c0,-88.4 -71.6,-160 -160,-160zm0,256c-53,0 -96,-43 -96,-96c0,-53 43,-96 96,-96c53,0 96,43 96,96c0,53 -43,96 -96,96z"/>
</svg>