<svg width="18" height="12" viewBox="0 0 18 12" fill="none" xmlns="http://www.w3.org/2000/svg">
<path d="M12.2727 5.14286C13.6309 5.14286 14.7191 3.99429 14.7191 2.57143C14.7191 1.14857 13.6309 0 12.2727 0C10.9145 0 9.81818 1.14857 9.81818 2.57143C9.81818 3.99429 10.9145 5.14286 12.2727 5.14286ZM5.72727 5.14286C7.08545 5.14286 8.17364 3.99429 8.17364 2.57143C8.17364 1.14857 7.08545 0 5.72727 0C4.36909 0 3.27273 1.14857 3.27273 2.57143C3.27273 3.99429 4.36909 5.14286 5.72727 5.14286ZM5.72727 6.85714C3.82091 6.85714 0 7.86 0 9.85714V12H11.4545V9.85714C11.4545 7.86 7.63364 6.85714 5.72727 6.85714ZM12.2727 6.85714C12.0355 6.85714 11.7655 6.87429 11.4791 6.9C12.4282 7.62 13.0909 8.58857 13.0909 9.85714V12H18V9.85714C18 7.86 14.1791 6.85714 12.2727 6.85714Z" fill="#FCF6FF"/>
</svg>
