<svg width="21" height="26" viewBox="0 0 21 26" fill="none" xmlns="http://www.w3.org/2000/svg">
<path fill-rule="evenodd" clip-rule="evenodd" d="M17.4576 13.659C17.4824 11.7328 18.4922 9.95367 20.1332 8.94481C19.0933 7.4596 17.4139 6.55171 15.6017 6.49501C13.6951 6.29489 11.8468 7.63588 10.8752 7.63588C9.88487 7.63588 8.389 6.51488 6.7782 6.54802C4.6588 6.61649 2.73084 7.79228 1.69971 9.6452C-0.496123 13.4469 1.14177 19.0342 3.2452 22.1073C4.29759 23.6121 5.52752 25.2929 7.13688 25.2333C8.71172 25.168 9.2999 24.2291 11.2009 24.2291C13.0842 24.2291 13.636 25.2333 15.278 25.1954C16.9679 25.168 18.0326 23.684 19.0481 22.1649C19.8042 21.0927 20.3861 19.9077 20.7721 18.6537C18.765 17.8049 17.46 15.8382 17.4576 13.659Z" fill="white"/>
<path fill-rule="evenodd" clip-rule="evenodd" d="M14.3561 4.47397C15.2775 3.36787 15.7315 1.94616 15.6216 0.510773C14.2139 0.658623 12.9136 1.33141 11.9797 2.39507C11.0576 3.44452 10.5904 4.81747 10.6812 6.21154C12.1077 6.22623 13.4622 5.58581 14.3561 4.47397Z" fill="white"/>
</svg>
