<svg width="14" height="14" viewBox="0 0 14 14" xmlns="http://www.w3.org/2000/svg">
    <path d="M4.375 6.563v.875a.437.437 0 01-.438.437h-.874a.437.437 0 01-.438-.438v-.875c0-.241.196-.437.438-.437h.874c.242 0 .438.196.438.438zm-.438 3.062h-.874a.437.437 0 00-.438.438v.874c0 .242.196.438.438.438h.874a.437.437 0 00.438-.438v-.874a.437.437 0 00-.438-.438zm3.5-3.5h-.875a.437.437 0 00-.437.438v.875c0 .241.196.437.438.437h.875a.437.437 0 00.437-.438v-.875a.437.437 0 00-.438-.437zm0 3.5h-.875a.437.437 0 00-.437.438v.874c0 .242.196.438.438.438h.875a.437.437 0 00.437-.438v-.874a.437.437 0 00-.438-.438zm3.5-3.5h-.874a.437.437 0 00-.438.438v.875c0 .241.196.437.438.437h.874a.437.437 0 00.438-.438v-.875a.437.437 0 00-.438-.437zm0 3.5h-.874a.437.437 0 00-.438.438v.874c0 .242.196.438.438.438h.874a.437.437 0 00.438-.438v-.874a.437.437 0 00-.438-.438zm-7.874-7h.874a.437.437 0 00.438-.438V.438A.437.437 0 003.937 0h-.874a.437.437 0 00-.438.438v1.75c0 .241.196.437.438.437zM14 3.5v8.75A1.75 1.75 0 0112.25 14H1.75A1.75 1.75 0 010 12.25V3.5c0-.966.784-1.75 1.75-1.75h.438v.438c0 .481.392.874.874.874h.876a.876.876 0 00.874-.874V1.75h4.375v.438c0 .481.394.874.876.874h.874a.877.877 0 00.876-.874V1.75h.437c.966 0 1.75.784 1.75 1.75zm-.875 1.75a.876.876 0 00-.875-.875H1.75a.876.876 0 00-.875.875v7c0 .483.393.875.875.875h10.5a.876.876 0 00.875-.875v-7zm-3.063-2.625h.876a.437.437 0 00.437-.438V.438A.437.437 0 0010.937 0h-.874a.437.437 0 00-.438.438v1.75c0 .241.196.437.438.437z"/>
</svg>
