<svg width="149" height="150" viewBox="0 0 149 150" fill="none" xmlns="http://www.w3.org/2000/svg">
    <path d="M118.748 58.6099H116.001V45.2644C116.001 45.1806 115.988 45.0974 115.977 45.0123C115.973 44.4829 115.805 43.962 115.445 43.5503L93.3864 18.1845C93.38 18.1774 93.3731 18.1753 93.3687 18.1688C93.2374 18.0202 93.0841 17.8974 92.9219 17.7915C92.8737 17.7585 92.8255 17.7314 92.775 17.7035C92.6348 17.6268 92.4858 17.5623 92.3325 17.5159C92.2909 17.505 92.2538 17.4877 92.2123 17.4764C92.0453 17.4369 91.8724 17.4121 91.6975 17.4121H37.4858C35.0102 17.4121 32.9993 19.439 32.9993 21.9289V58.6086H30.2527C26.7113 58.6086 23.8398 61.4983 23.8398 65.0639V98.6341C23.8398 102.198 26.7113 105.091 30.2527 105.091H32.9993V128.071C32.9993 130.561 35.0102 132.588 37.4858 132.588H111.515C113.988 132.588 116.001 130.561 116.001 128.071V105.091H118.748C122.288 105.091 125.16 102.199 125.16 98.6353V65.0651C125.16 61.4985 122.288 58.6099 118.748 58.6099ZM37.4858 21.9289H89.4539V45.0371C89.4539 46.2849 90.4593 47.2955 91.6973 47.2955H111.515V58.6097H37.4858V21.9289ZM71.2602 83.1997C65.6931 81.248 62.0659 78.147 62.0659 73.245C62.0659 67.4884 66.8361 63.0847 74.7386 63.0847C78.5169 63.0847 81.3004 63.8852 83.2871 64.7876L81.599 70.9425C80.2573 70.2898 77.8719 69.3393 74.59 69.3393C71.3105 69.3393 69.7201 70.841 69.7201 72.5921C69.7201 74.7446 71.6078 75.6945 75.934 77.3463C81.8478 79.5475 84.6313 82.648 84.6313 87.4028C84.6313 93.0554 80.3076 97.861 71.1116 97.861C67.2852 97.861 63.5061 96.8578 61.6181 95.8087L63.158 89.5035C65.1971 90.5567 68.3276 91.6054 71.5596 91.6054C75.0383 91.6054 76.878 90.1542 76.878 87.9511C76.877 85.8484 75.2855 84.6487 71.2602 83.1997ZM31.7928 80.9965C31.7928 69.4891 39.9461 63.0847 50.083 63.0847C54.0104 63.0847 56.9924 63.8852 58.3354 64.5864L56.793 70.6396C55.253 69.9917 53.1138 69.392 50.4306 69.392C44.4165 69.392 39.7458 73.0419 39.7458 80.5462C39.7458 87.3014 43.7211 91.5535 50.4828 91.5535C52.767 91.5535 55.3023 91.0539 56.793 90.4532L57.9371 96.4076C56.5449 97.1092 53.4145 97.861 49.3385 97.861C37.7577 97.8612 31.7928 90.6031 31.7928 80.9965ZM111.515 126.847H37.4858V105.091H111.515V126.847ZM106.503 97.3586H97.6563L86.9206 63.6359H95.2226L99.297 77.8979C100.44 81.8988 101.484 85.7513 102.281 89.9549H102.429C103.273 85.9011 104.316 81.8985 105.46 78.0458L109.735 63.6359H117.789L106.503 97.3586Z" fill="#D6D6D6"/>
</svg>
