<svg xmlns="http://www.w3.org/2000/svg" width="20" height="20" viewBox="0 0 479.925 479.925"><path d="M423.924 171.856v-1.8c.036-75.111-60.825-136.029-135.936-136.064A135.999 135.999 0 00174.468 95c-50.35-16.807-104.792 10.385-121.599 60.735a96.129 96.129 0 00-4.945 30.321v2.056c-34.211 8.887-54.74 43.825-45.853 78.035 7.32 28.179 32.738 47.867 61.853 47.909h143.472a8 8 0 000-16H63.924c-26.509-.158-47.871-21.775-47.714-48.284.141-23.766 17.653-43.85 41.178-47.228a8 8 0 006.904-8.616c-.216-2.576-.368-5.224-.368-7.872.057-44.24 35.967-80.058 80.207-80.001a80.098 80.098 0 0130.569 6.105 8 8 0 009.944-3.296c33.745-57.04 107.34-75.924 164.38-42.18 36.535 21.614 58.932 60.922 58.9 103.372 0 2.648-.072 5.216-.288 7.792a8 8 0 007.032 8.632c30.694 3.798 52.497 31.759 48.699 62.453-3.465 28.004-27.225 49.056-55.443 49.123a59.95 59.95 0 01-7.2-.424 7.008 7.008 0 00-3.392.424H271.636a8 8 0 000 16h128.288a6.862 6.862 0 001.808-.248c2.024.168 4.096.248 6.192.248 39.765.001 72.001-32.234 72.001-71.999.001-33.601-23.24-62.735-56.001-70.201z"/><path d="M302.148 364.4l-54.224 54.224V194.056a8 8 0 00-16 0v224.568L177.7 364.4a8 8 0 00-11.312 11.312l67.88 67.88a8 8 0 0011.312 0l67.88-67.88a8 8 0 00-.196-11.312 8 8 0 00-11.116 0z"/></svg>