<svg width="10" height="12" viewBox="0 0 10 12" fill="none" xmlns="http://www.w3.org/2000/svg">
    <path d="M5 0C3.27688 0 1.875 1.3458 1.875 3V4.8H1.25C0.918479 4.8 0.600537 4.92643 0.366116 5.15147C0.131696 5.37652 0 5.68174 0 6V10.8C0 11.1183 0.131696 11.4235 0.366116 11.6485C0.600537 11.8736 0.918479 12 1.25 12H8.75C9.08152 12 9.39946 11.8736 9.63388 11.6485C9.8683 11.4235 10 11.1183 10 10.8V6C10 5.68174 9.8683 5.37652 9.63388 5.15147C9.39946 4.92643 9.08152 4.8 8.75 4.8H8.125V3C8.125 1.3458 6.72312 0 5 0ZM3.125 3C3.125 2.0076 3.96625 1.2 5 1.2C6.03375 1.2 6.875 2.0076 6.875 3V4.8H3.125V3ZM5.625 9.4338V10.8H4.375V9.4338C4.15649 9.31367 3.98104 9.1328 3.87177 8.91501C3.7625 8.69723 3.72455 8.45277 3.76293 8.21386C3.8013 7.97496 3.9142 7.75283 4.08673 7.57676C4.25926 7.40069 4.48332 7.27895 4.72938 7.2276C4.91214 7.18881 5.10164 7.18989 5.2839 7.23077C5.46617 7.27165 5.63655 7.35129 5.78249 7.4638C5.92843 7.57632 6.04619 7.71885 6.12711 7.88088C6.20802 8.04291 6.25002 8.22031 6.25 8.4C6.24964 8.60985 6.19168 8.81589 6.08196 8.99739C5.97223 9.17888 5.81462 9.3294 5.625 9.4338Z" fill="white"/>
</svg>
