<svg width="40" height="40" viewBox="0 0 40 40" fill="none" xmlns="http://www.w3.org/2000/svg">
  <rect width="40" height="40" rx="10.588" fill="#04C0B2"/>
  <path d="M22.852 6.271a1.353 1.353 0 011.9.002l5.836 5.763-5.836 5.763a1.353 1.353 0 01-1.903-1.924l2.386-2.364h-12.49c-.726 0-1.314.589-1.314 1.315v12.362c0 .726.588 1.314 1.314 1.314h14.662a1.475 1.475 0 010 2.95h-15.03a3.944 3.944 0 01-3.944-3.943V14.505a3.944 3.944 0 013.944-3.944h12.858l-2.386-2.365a1.353 1.353 0 01.003-1.925z" fill="#fff"/>
</svg>