<svg width="222" height="40" viewBox="0 0 222 40" fill="none" xmlns="http://www.w3.org/2000/svg">
<rect width="40" height="40" rx="10.5882" fill="#04C0B2"/>
<path d="M22.8524 6.27098C23.3796 5.75213 24.2258 5.75286 24.7521 6.27263L30.5882 12.0359L24.7521 17.7991C24.2258 18.3189 23.3796 18.3196 22.8524 17.8008C22.315 17.272 22.3135 16.406 22.849 15.8753L25.2347 13.5111H12.7453C12.0192 13.5111 11.4307 14.0996 11.4307 14.8257V27.1876C11.4307 27.9137 12.0192 28.5023 12.7453 28.5023H27.4072C28.2219 28.5023 28.8824 29.1627 28.8824 29.9774C28.8824 30.7922 28.2219 31.4526 27.4072 31.4526H12.3765C10.1984 31.4526 8.43262 29.6869 8.43262 27.5088V14.5046C8.43262 12.3264 10.1984 10.5607 12.3765 10.5607L25.2347 10.5607L22.849 8.1964C22.3135 7.66574 22.315 6.79977 22.8524 6.27098Z" fill="white"/>
<path d="M54.9394 9.08097C57.6541 9.08097 59.7537 9.6536 61.2383 10.7989C62.7229 11.9229 63.4652 13.609 63.4652 15.8571C63.4652 18.2537 62.6911 20.0352 61.1429 21.2017C59.5947 22.3681 57.5374 22.9514 54.9712 22.9514H52.2035V31H49.1813V9.08097H54.9394ZM54.844 20.5654C56.6043 20.5654 57.9404 20.2261 58.8524 19.5474C59.7856 18.8687 60.2521 17.6492 60.2521 15.8889C60.2521 14.3195 59.7856 13.1848 58.8524 12.4849C57.9404 11.7851 56.6255 11.4351 54.9076 11.4351H52.2035V20.5654H54.844ZM74.171 13.8529C74.7648 13.8529 75.3163 13.9165 75.8253 14.0438L75.2844 16.9069C74.7754 16.7797 74.2876 16.716 73.8211 16.716C72.7818 16.716 71.9441 17.0978 71.3078 17.8613C70.6716 18.6248 70.1732 19.8125 69.8126 21.4243V31H66.8859V14.2346H69.3991L69.6854 17.6386C70.1308 16.3873 70.7352 15.4435 71.4987 14.8073C72.2622 14.171 73.153 13.8529 74.171 13.8529ZM84.4933 13.8529C86.8474 13.8529 88.6713 14.6376 89.9651 16.207C91.28 17.7765 91.9375 19.9079 91.9375 22.6014C91.9375 24.3405 91.6405 25.8781 91.0467 27.2143C90.4529 28.5292 89.5939 29.5578 88.4699 30.3001C87.3458 31.0212 86.0097 31.3818 84.4615 31.3818C82.1073 31.3818 80.2728 30.597 78.9578 29.0276C77.6429 27.4582 76.9854 25.3267 76.9854 22.6332C76.9854 20.8941 77.2824 19.3671 77.8762 18.0522C78.47 16.716 79.329 15.6874 80.453 14.9663C81.5771 14.224 82.9238 13.8529 84.4933 13.8529ZM84.4933 16.207C81.5877 16.207 80.1349 18.3491 80.1349 22.6332C80.1349 26.8961 81.5771 29.0276 84.4615 29.0276C87.3458 29.0276 88.788 26.8855 88.788 22.6014C88.788 18.3385 87.3564 16.207 84.4933 16.207ZM104.471 13.8529C106.613 13.8529 108.183 14.6164 109.18 16.1434C110.176 17.6704 110.675 19.8231 110.675 22.6014C110.675 25.2313 110.102 27.3521 108.957 28.964C107.812 30.5758 106.189 31.3818 104.089 31.3818C102.223 31.3818 100.76 30.7455 99.6993 29.473V37.4262L96.7725 37.7761V14.2346H99.2857L99.5084 16.4934C100.123 15.645 100.866 14.9982 101.735 14.5528C102.605 14.0862 103.517 13.8529 104.471 13.8529ZM103.39 28.9958C106.147 28.9958 107.525 26.8643 107.525 22.6014C107.525 18.3173 106.263 16.1752 103.74 16.1752C102.912 16.1752 102.159 16.4191 101.481 16.9069C100.802 17.3947 100.208 18.0204 99.6993 18.7839V26.9598C100.123 27.6172 100.654 28.1262 101.29 28.4868C101.926 28.8261 102.626 28.9958 103.39 28.9958ZM128.132 31H125.619L125.396 28.3913C124.76 29.4306 124.028 30.1941 123.201 30.6819C122.374 31.1485 121.366 31.3818 120.179 31.3818C118.715 31.3818 117.57 30.9364 116.743 30.0456C115.916 29.1549 115.502 27.8929 115.502 26.2599V14.2346H118.429V25.9418C118.429 27.087 118.631 27.9036 119.034 28.3913C119.436 28.8579 120.094 29.0912 121.006 29.0912C122.639 29.0912 124.039 28.1262 125.205 26.1963V14.2346H128.132V31ZM138.727 13.8529C139.872 13.8529 140.901 14.012 141.813 14.3301C142.724 14.6482 143.594 15.1254 144.421 15.7617L143.18 17.6068C142.417 17.119 141.685 16.7585 140.985 16.5252C140.307 16.2919 139.586 16.1752 138.822 16.1752C137.868 16.1752 137.115 16.3767 136.563 16.7797C136.012 17.1614 135.736 17.6916 135.736 18.3703C135.736 19.049 135.991 19.5792 136.5 19.961C137.03 20.3427 137.974 20.7139 139.331 21.0744C141.197 21.541 142.587 22.1772 143.499 22.9832C144.432 23.7891 144.898 24.8919 144.898 26.2917C144.898 27.946 144.251 29.2079 142.958 30.0774C141.685 30.947 140.126 31.3818 138.281 31.3818C135.736 31.3818 133.626 30.6501 131.951 29.1867L133.509 27.4052C134.93 28.4868 136.5 29.0276 138.218 29.0276C139.321 29.0276 140.19 28.8049 140.826 28.3595C141.484 27.8929 141.813 27.2673 141.813 26.4826C141.813 25.9099 141.696 25.454 141.463 25.1146C141.229 24.7541 140.826 24.4466 140.254 24.1921C139.681 23.9163 138.843 23.63 137.74 23.3331C135.959 22.8665 134.665 22.2409 133.859 21.4562C133.075 20.6714 132.682 19.6746 132.682 18.4657C132.682 17.5962 132.937 16.8115 133.446 16.1116C133.976 15.3905 134.697 14.8391 135.609 14.4573C136.542 14.0544 137.581 13.8529 138.727 13.8529ZM151.954 7.14038V31H149.028V7.49033L151.954 7.14038ZM161.594 14.2346L155.422 21.647L162.293 31H158.794L152.145 21.8379L158.317 14.2346H161.594ZM176.134 27.087C176.134 27.7657 176.251 28.2747 176.484 28.614C176.718 28.9322 177.067 29.1761 177.534 29.3457L176.866 31.3818C175.996 31.2757 175.297 31.0318 174.766 30.6501C174.236 30.2683 173.844 29.6745 173.589 28.8685C172.465 30.544 170.8 31.3818 168.595 31.3818C166.94 31.3818 165.636 30.9152 164.682 29.982C163.727 29.0488 163.25 27.8293 163.25 26.3235C163.25 24.542 163.886 23.174 165.159 22.2197C166.453 21.2653 168.277 20.7881 170.631 20.7881H173.208V19.5474C173.208 18.3597 172.921 17.5114 172.349 17.0024C171.776 16.4934 170.896 16.2389 169.708 16.2389C168.478 16.2389 166.972 16.5358 165.191 17.1296L164.459 14.9982C166.537 14.2346 168.467 13.8529 170.249 13.8529C172.221 13.8529 173.695 14.3407 174.671 15.3163C175.647 16.2707 176.134 17.6386 176.134 19.4201V27.087ZM169.263 29.1867C170.938 29.1867 172.253 28.3171 173.208 26.578V22.7287H171.012C167.916 22.7287 166.368 23.8739 166.368 26.1645C166.368 27.1613 166.612 27.9142 167.099 28.4232C167.587 28.9322 168.308 29.1867 169.263 29.1867ZM190.607 30.2365C189.505 31 188.253 31.3818 186.853 31.3818C185.433 31.3818 184.319 30.9788 183.513 30.1729C182.728 29.3457 182.336 28.1581 182.336 26.6098V16.4934H179.409V14.2346H182.336V10.4489L185.263 10.099V14.2346H189.239L188.921 16.4934H185.263V26.4826C185.263 27.3521 185.411 27.9884 185.708 28.3913C186.026 28.7731 186.546 28.964 187.267 28.964C187.925 28.964 188.667 28.7413 189.494 28.2959L190.607 30.2365ZM199.473 13.8529C201.827 13.8529 203.651 14.6376 204.945 16.207C206.26 17.7765 206.917 19.9079 206.917 22.6014C206.917 24.3405 206.62 25.8781 206.026 27.2143C205.433 28.5292 204.574 29.5578 203.45 30.3001C202.326 31.0212 200.989 31.3818 199.441 31.3818C197.087 31.3818 195.252 30.597 193.938 29.0276C192.623 27.4582 191.965 25.3267 191.965 22.6332C191.965 20.8941 192.262 19.3671 192.856 18.0522C193.45 16.716 194.309 15.6874 195.433 14.9663C196.557 14.224 197.904 13.8529 199.473 13.8529ZM199.473 16.207C196.567 16.207 195.115 18.3491 195.115 22.6332C195.115 26.8961 196.557 29.0276 199.441 29.0276C202.326 29.0276 203.768 26.8855 203.768 22.6014C203.768 18.3385 202.336 16.207 199.473 16.207ZM219.037 13.8529C219.631 13.8529 220.183 13.9165 220.692 14.0438L220.151 16.9069C219.642 16.7797 219.154 16.716 218.687 16.716C217.648 16.716 216.81 17.0978 216.174 17.8613C215.538 18.6248 215.04 19.8125 214.679 21.4243V31H211.752V14.2346H214.265L214.552 17.6386C214.997 16.3873 215.602 15.4435 216.365 14.8073C217.129 14.171 218.019 13.8529 219.037 13.8529Z" fill="black"/>
</svg>
