<svg width="239" height="40" viewBox="0 0 239 40" fill="none" xmlns="http://www.w3.org/2000/svg">
<rect width="40" height="40" rx="10.5882" fill="#04C0B2"/>
<path d="M22.8524 6.27098C23.3796 5.75213 24.2258 5.75286 24.7521 6.27263L30.5882 12.0359L24.7521 17.7991C24.2258 18.3189 23.3796 18.3196 22.8524 17.8008C22.315 17.272 22.3135 16.406 22.849 15.8753L25.2347 13.5111H12.7453C12.0192 13.5111 11.4307 14.0996 11.4307 14.8257V27.1876C11.4307 27.9137 12.0192 28.5023 12.7453 28.5023H27.4072C28.2219 28.5023 28.8824 29.1627 28.8824 29.9774C28.8824 30.7922 28.2219 31.4526 27.4072 31.4526H12.3765C10.1984 31.4526 8.43262 29.6869 8.43262 27.5088V14.5046C8.43262 12.3264 10.1984 10.5607 12.3765 10.5607L25.2347 10.5607L22.849 8.1964C22.3135 7.66574 22.315 6.79977 22.8524 6.27098Z" fill="white"/>
<path d="M64.2924 9.08097V31H61.2702V11.6578H52.2035V31H49.1813V9.08097H64.2924ZM78.1884 13.8529C80.3304 13.8529 81.8999 14.6164 82.8967 16.1434C83.8935 17.6704 84.3919 19.8231 84.3919 22.6014C84.3919 25.2313 83.8192 27.3521 82.674 28.964C81.5287 30.5758 79.9063 31.3818 77.8066 31.3818C75.9403 31.3818 74.4769 30.7455 73.4164 29.473V37.4262L70.4897 37.7761V14.2346H73.0029L73.2256 16.4934C73.8406 15.645 74.5829 14.9982 75.4525 14.5528C76.322 14.0862 77.234 13.8529 78.1884 13.8529ZM77.1067 28.9958C79.8638 28.9958 81.2424 26.8643 81.2424 22.6014C81.2424 18.3173 79.9805 16.1752 77.4567 16.1752C76.6295 16.1752 75.8766 16.4191 75.198 16.9069C74.5193 17.3947 73.9254 18.0204 73.4164 18.7839V26.9598C73.8406 27.6172 74.3708 28.1262 75.0071 28.4868C75.6433 28.8261 76.3432 28.9958 77.1067 28.9958ZM95.6775 13.8529C98.0316 13.8529 99.8555 14.6376 101.149 16.207C102.464 17.7765 103.122 19.9079 103.122 22.6014C103.122 24.3405 102.825 25.8781 102.231 27.2143C101.637 28.5292 100.778 29.5578 99.6541 30.3001C98.53 31.0212 97.1939 31.3818 95.6456 31.3818C93.2915 31.3818 91.457 30.597 90.142 29.0276C88.8271 27.4582 88.1696 25.3267 88.1696 22.6332C88.1696 20.8941 88.4666 19.3671 89.0604 18.0522C89.6542 16.716 90.5132 15.6874 91.6372 14.9663C92.7613 14.224 94.108 13.8529 95.6775 13.8529ZM95.6775 16.207C92.7719 16.207 91.3191 18.3491 91.3191 22.6332C91.3191 26.8961 92.7613 29.0276 95.6456 29.0276C98.53 29.0276 99.9722 26.8855 99.9722 22.6014C99.9722 18.3385 98.5406 16.207 95.6775 16.207ZM117.755 31V16.6206H110.883V31H107.957V14.2346H120.682V31H117.755ZM133.434 31.0954C132.776 33.0466 131.854 34.5842 130.666 35.7083C129.5 36.8536 127.824 37.5428 125.64 37.7761L125.322 35.4856C126.424 35.2947 127.305 35.019 127.962 34.6585C128.619 34.2979 129.139 33.8313 129.521 33.2587C129.924 32.7073 130.295 31.9544 130.634 31H129.648L124.017 14.2346H127.135L131.62 28.8685L136.011 14.2346H139.033L133.434 31.0954ZM148.363 13.8529C149.36 13.8529 150.272 14.0013 151.099 14.2983C151.926 14.574 152.721 15.03 153.485 15.6662L152.085 17.5114C151.491 17.0872 150.908 16.7797 150.335 16.5888C149.784 16.3767 149.169 16.2707 148.49 16.2707C147.133 16.2707 146.072 16.8115 145.309 17.8931C144.567 18.9748 144.195 20.576 144.195 22.6969C144.195 24.8177 144.567 26.3871 145.309 27.4052C146.051 28.402 147.112 28.9004 148.49 28.9004C149.148 28.9004 149.752 28.8049 150.304 28.614C150.855 28.402 151.47 28.0732 152.149 27.6278L153.485 29.5366C151.958 30.7667 150.251 31.3818 148.363 31.3818C146.094 31.3818 144.302 30.6182 142.987 29.0912C141.693 27.5642 141.046 25.454 141.046 22.7605C141.046 20.979 141.343 19.4201 141.937 18.084C142.531 16.7479 143.368 15.7086 144.45 14.9663C145.553 14.224 146.857 13.8529 148.363 13.8529ZM170.013 14.2346L164.923 21.997L170.617 31H167.15L162.505 23.2695H160.374V31H157.447V14.2346H160.374V20.979H162.569L166.8 14.2346H170.013ZM184.771 27.087C184.771 27.7657 184.888 28.2747 185.121 28.614C185.354 28.9322 185.704 29.1761 186.171 29.3457L185.503 31.3818C184.633 31.2757 183.933 31.0318 183.403 30.6501C182.873 30.2683 182.48 29.6745 182.226 28.8685C181.102 30.544 179.437 31.3818 177.231 31.3818C175.577 31.3818 174.273 30.9152 173.318 29.982C172.364 29.0488 171.887 27.8293 171.887 26.3235C171.887 24.542 172.523 23.174 173.796 22.2197C175.089 21.2653 176.913 20.7881 179.267 20.7881H181.844V19.5474C181.844 18.3597 181.558 17.5114 180.985 17.0024C180.413 16.4934 179.532 16.2389 178.345 16.2389C177.115 16.2389 175.609 16.5358 173.827 17.1296L173.096 14.9982C175.174 14.2346 177.104 13.8529 178.886 13.8529C180.858 13.8529 182.332 14.3407 183.308 15.3163C184.283 16.2707 184.771 17.6386 184.771 19.4201V27.087ZM177.899 29.1867C179.575 29.1867 180.89 28.3171 181.844 26.578V22.7287H179.649C176.553 22.7287 175.004 23.8739 175.004 26.1645C175.004 27.1613 175.248 27.9142 175.736 28.4232C176.224 28.9322 176.945 29.1867 177.899 29.1867ZM201.486 14.2346L201.136 16.6206H195.76V31H192.833V16.6206H187.297V14.2346H201.486ZM210.005 13.8529C212.359 13.8529 214.183 14.6376 215.477 16.207C216.792 17.7765 217.449 19.9079 217.449 22.6014C217.449 24.3405 217.152 25.8781 216.558 27.2143C215.964 28.5292 215.105 29.5578 213.981 30.3001C212.857 31.0212 211.521 31.3818 209.973 31.3818C207.619 31.3818 205.784 30.597 204.469 29.0276C203.154 27.4582 202.497 25.3267 202.497 22.6332C202.497 20.8941 202.794 19.3671 203.388 18.0522C203.982 16.716 204.84 15.6874 205.965 14.9663C207.089 14.224 208.435 13.8529 210.005 13.8529ZM210.005 16.207C207.099 16.207 205.646 18.3491 205.646 22.6332C205.646 26.8961 207.089 29.0276 209.973 29.0276C212.857 29.0276 214.3 26.8855 214.3 22.6014C214.3 18.3385 212.868 16.207 210.005 16.207ZM229.983 13.8529C232.125 13.8529 233.694 14.6164 234.691 16.1434C235.688 17.6704 236.186 19.8231 236.186 22.6014C236.186 25.2313 235.614 27.3521 234.468 28.964C233.323 30.5758 231.701 31.3818 229.601 31.3818C227.735 31.3818 226.271 30.7455 225.211 29.473V37.4262L222.284 37.7761V14.2346H224.797L225.02 16.4934C225.635 15.645 226.377 14.9982 227.247 14.5528C228.116 14.0862 229.028 13.8529 229.983 13.8529ZM228.901 28.9958C231.658 28.9958 233.037 26.8643 233.037 22.6014C233.037 18.3173 231.775 16.1752 229.251 16.1752C228.424 16.1752 227.671 16.4191 226.992 16.9069C226.314 17.3947 225.72 18.0204 225.211 18.7839V26.9598C225.635 27.6172 226.165 28.1262 226.801 28.4868C227.438 28.8261 228.138 28.9958 228.901 28.9958Z" fill="black"/>
</svg>
