<svg width="18" height="19" viewBox="0 0 18 19" fill="none" xmlns="http://www.w3.org/2000/svg">
<path d="M16.3104 5.78636L15.4093 6.65C17.0313 8.20455 17.0313 10.6227 15.4093 12.2636L16.3104 13.1273C18.5632 11.1409 18.5632 7.85909 16.3104 5.78636ZM14.418 7.6L13.5169 8.46364C13.9675 9.06818 13.9675 9.84546 13.5169 10.45L14.418 11.3136C15.4994 10.2773 15.4994 8.72273 14.418 7.6ZM10.8135 0H1.80225C0.811014 0 0 0.777273 0 1.72727V17.2727C0 18.2227 0.811014 19 1.80225 19H10.8135C11.8048 19 12.6158 18.2227 12.6158 17.2727V1.72727C12.6158 0.777273 11.8048 0 10.8135 0ZM10.8135 16.4091H1.80225V2.59091H10.8135V16.4091Z" fill="#045B8C"/>
</svg>
