<svg width="114" height="143" viewBox="0 0 114 143" fill="none" xmlns="http://www.w3.org/2000/svg">
    <path d="M114 125.733V42.9L71.25 0H14.25C6.37687 0 0.0712516 6.39925 0.0712516 14.3L0 128.7C0 136.601 6.30562 143 14.1787 143H99.75C102.921 143 105.842 141.928 108.193 140.14L76.5938 108.43C71.0006 112.184 64.2675 114.4 57 114.4C37.335 114.4 21.375 98.384 21.375 78.65C21.375 58.916 37.335 42.9 57 42.9C76.665 42.9 92.625 58.916 92.625 78.65C92.625 85.943 90.4163 92.6998 86.7113 98.3483L114 125.733ZM35.625 78.65C35.625 90.4833 45.2081 100.1 57 100.1C68.7919 100.1 78.375 90.4833 78.375 78.65C78.375 66.8167 68.7919 57.2 57 57.2C45.2081 57.2 35.625 66.8167 35.625 78.65Z" fill="#F0F0F0"/>
</svg>
