<svg width="35" height="31" viewBox="0 0 35 31" fill="none" xmlns="http://www.w3.org/2000/svg">
    <path d="M5.09824 4.55674V0.179688H8.01627V4.55674H12.3933V7.47477H8.01627V11.8518H5.09824V7.47477H0.721191V4.55674H5.09824ZM9.47529 13.3108V8.93379H13.8523V4.55674H24.0655L26.7355 7.47477H31.3605C32.9655 7.47477 34.2786 8.78788 34.2786 10.3928V27.901C34.2786 29.5059 32.9655 30.819 31.3605 30.819H8.01627C6.41136 30.819 5.09824 29.5059 5.09824 27.901V13.3108H9.47529ZM19.6884 26.442C23.7153 26.442 26.9835 23.1738 26.9835 19.1469C26.9835 15.12 23.7153 11.8518 19.6884 11.8518C15.6615 11.8518 12.3933 15.12 12.3933 19.1469C12.3933 23.1738 15.6615 26.442 19.6884 26.442ZM15.0196 19.1469C15.0196 21.7294 17.1059 23.8158 19.6884 23.8158C22.2709 23.8158 24.3573 21.7294 24.3573 19.1469C24.3573 16.5644 22.2709 14.478 19.6884 14.478C17.1059 14.478 15.0196 16.5644 15.0196 19.1469Z" fill="#878787"/>
</svg>
