<svg width="233" height="320" viewBox="0 0 233 320" fill="none" xmlns="http://www.w3.org/2000/svg">
<g clip-path="url(#clip0_32_520)">
<path d="M199.87 505.84H32.67C24.5921 505.829 16.8481 502.616 11.1362 496.904C5.42421 491.192 2.2106 483.448 2.20001 475.37V78.47C2.2106 70.3921 5.42421 62.6481 11.1362 56.9361C16.8481 51.2242 24.5921 48.0106 32.67 48H199.87C207.948 48.0106 215.692 51.2242 221.404 56.9361C227.116 62.6481 230.329 70.3921 230.34 78.47V475.37C230.329 483.448 227.116 491.192 221.404 496.904C215.692 502.616 207.948 505.829 199.87 505.84ZM32.67 49C24.8565 49.0079 17.3653 52.1154 11.8403 57.6403C6.31537 63.1653 3.20795 70.6565 3.20001 78.47V475.37C3.20795 483.184 6.31537 490.675 11.8403 496.2C17.3653 501.725 24.8565 504.832 32.67 504.84H199.87C207.684 504.832 215.175 501.725 220.7 496.2C226.225 490.675 229.332 483.184 229.34 475.37V78.47C229.332 70.6565 226.225 63.1653 220.7 57.6403C215.175 52.1154 207.684 49.0079 199.87 49H32.67Z" fill="white" fill-opacity="0.42"/>
<path d="M199.81 503.27H32.71C25.3047 503.254 18.2073 500.305 12.971 495.069C7.73464 489.833 4.78587 482.735 4.77002 475.33V78.51C4.78323 71.103 7.73083 64.003 12.9675 58.7645C18.2041 53.526 25.303 50.5759 32.71 50.56H199.81C207.217 50.5759 214.316 53.526 219.553 58.7645C224.789 64.003 227.737 71.103 227.75 78.51V475.33C227.734 482.735 224.785 489.833 219.549 495.069C214.313 500.305 207.215 503.254 199.81 503.27ZM32.71 51.56C25.5682 51.5759 18.7236 54.4206 13.6746 59.4716C8.62548 64.5226 5.78323 71.3682 5.77002 78.51V475.33C5.78587 482.47 8.62927 489.313 13.6781 494.362C18.7269 499.411 25.57 502.254 32.71 502.27H199.81C206.95 502.254 213.793 499.411 218.842 494.362C223.891 489.313 226.734 482.47 226.75 475.33V78.51C226.737 71.3682 223.895 64.5226 218.845 59.4716C213.796 54.4206 206.952 51.5759 199.81 51.56H32.71Z" fill="white" fill-opacity="0.42"/>
<path d="M199.46 495.65H32.65C27.0909 495.592 21.7816 493.332 17.8862 489.365C13.9909 485.399 11.8273 480.049 11.87 474.49V79.65C11.8273 74.0941 13.9881 68.7478 17.8791 64.7818C21.7702 60.8157 27.0743 58.5533 32.63 58.49H63.96C65.127 58.49 66.2461 58.9536 67.0713 59.7787C67.8964 60.6039 68.36 61.723 68.36 62.89C68.36 68.75 73.13 72.33 79 72.33H145.62C151.49 72.33 156.26 68.75 156.26 62.89C156.26 61.723 156.724 60.6039 157.549 59.7787C158.374 58.9536 159.493 58.49 160.66 58.49H199.44C204.996 58.5533 210.3 60.8157 214.191 64.7818C218.082 68.7478 220.243 74.0941 220.2 79.65V474.49C220.243 480.042 218.085 485.386 214.198 489.351C210.311 493.317 205.012 495.581 199.46 495.65ZM32.65 59.49C27.3561 59.5481 22.3011 61.7028 18.5933 65.4818C14.8855 69.2609 12.8273 74.3559 12.87 79.65V474.49C12.8273 479.781 14.8827 484.873 18.5862 488.651C22.2897 492.43 27.3395 494.587 32.63 494.65H199.46C204.75 494.587 209.8 492.43 213.504 488.651C217.207 484.873 219.263 479.781 219.22 474.49V79.65C219.263 74.3593 217.207 69.2673 213.504 65.4888C209.8 61.7104 204.75 59.5533 199.46 59.49H160.68C159.778 59.49 158.913 59.8482 158.276 60.4858C157.638 61.1235 157.28 61.9883 157.28 62.89C157.28 69.31 152.06 73.33 145.64 73.33H79.02C72.6 73.33 67.38 69.33 67.38 62.89C67.38 61.9883 67.0218 61.1235 66.3842 60.4858C65.7465 59.8482 64.8817 59.49 63.98 59.49H32.65Z" fill="white" fill-opacity="0.42"/>
<path d="M116.25 220.5C115.409 220.5 114.588 220.251 113.889 219.784C113.19 219.317 112.645 218.653 112.324 217.876C112.002 217.1 111.918 216.245 112.082 215.421C112.246 214.596 112.65 213.839 113.245 213.245C113.839 212.65 114.596 212.246 115.421 212.082C116.245 211.918 117.1 212.002 117.876 212.324C118.653 212.645 119.317 213.19 119.784 213.889C120.251 214.588 120.5 215.409 120.5 216.25C120.5 217.377 120.052 218.458 119.255 219.255C118.458 220.052 117.377 220.5 116.25 220.5ZM116.25 213C115.607 213 114.979 213.191 114.444 213.548C113.91 213.905 113.493 214.412 113.247 215.006C113.001 215.6 112.937 216.254 113.062 216.884C113.188 217.514 113.497 218.094 113.952 218.548C114.406 219.003 114.985 219.312 115.616 219.438C116.246 219.563 116.9 219.499 117.494 219.253C118.088 219.007 118.595 218.59 118.952 218.056C119.309 217.521 119.5 216.893 119.5 216.25C119.497 215.389 119.154 214.564 118.545 213.955C117.936 213.346 117.111 213.003 116.25 213Z" fill="white" fill-opacity="0.42"/>
<path d="M72 174C72 174 79.9079 184.518 87.7609 183.98C94.8741 183.493 101 174 101 174" stroke="white" stroke-opacity="0.42" stroke-width="1.2" stroke-linecap="round"/>
<path d="M132 173C132 173 139.908 183.518 147.761 182.98C154.874 182.493 161 173 161 173" stroke="white" stroke-opacity="0.42" stroke-width="1.2" stroke-linecap="round"/>
<path d="M3.2 131.94H1.33C0.976347 131.937 0.638071 131.795 0.388931 131.544C0.139791 131.293 -9.8477e-06 130.954 5.20288e-10 130.6V115.02C5.20316e-10 114.667 0.140118 114.329 0.389542 114.08C0.638965 113.83 0.977264 113.69 1.33 113.69H3.2V131.94ZM1.33 114.69C1.24248 114.69 1.15854 114.725 1.09665 114.787C1.03476 114.849 1 114.932 1 115.02V130.6C0.999962 130.688 1.03441 130.773 1.09602 130.837C1.15764 130.9 1.24157 130.937 1.33 130.94H2.2V114.69H1.33Z" fill="white" fill-opacity="0.42"/>
<path d="M176 118.423V119H170V118.544L174.974 112.577H170.072V112H175.913V112.456L170.925 118.423H176Z" fill="white" fill-opacity="0.42"/>
<path d="M163 91.0115V92H153V91.2184L161.289 80.9885H153.12V80H162.855V80.7816L154.542 91.0115H163Z" fill="white" fill-opacity="0.42"/>
<path d="M185 56.7644V58H173V57.023L182.947 44.2356H173.145V43H184.827V43.977L174.851 56.7644H185Z" fill="white" fill-opacity="0.2"/>
<path d="M163 31.5996V33H149V31.8927L160.605 17.4004H149.169V16H162.798V17.1073L151.159 31.5996H163Z" fill="white" fill-opacity="0.05"/>
<path d="M191 16.7644V18H179V17.023L188.947 4.23563H179.145V3H190.827V3.97701L180.851 16.7644H191Z" fill="white" fill-opacity="0.05"/>
<path d="M3.2 194.61H1.33C0.978073 194.607 0.641299 194.466 0.392441 194.218C0.143582 193.969 0.00261668 193.632 5.20288e-10 193.28V161.21C-9.8477e-06 160.856 0.139791 160.517 0.388931 160.266C0.638071 160.015 0.976347 159.873 1.33 159.87H3.2V194.61ZM1.33 160.84C1.24157 160.843 1.15764 160.88 1.09602 160.943C1.03441 161.007 0.999962 161.092 1 161.18V193.28C1 193.368 1.03476 193.451 1.09665 193.513C1.15854 193.575 1.24248 193.61 1.33 193.61H2.2V160.84H1.33Z" fill="white" fill-opacity="0.42"/>
<path d="M231.23 232.08H229.32V165.38H231.23C231.58 165.38 231.916 165.519 232.163 165.767C232.411 166.014 232.55 166.35 232.55 166.7V230.77C232.547 231.118 232.407 231.452 232.16 231.697C231.913 231.942 231.578 232.08 231.23 232.08ZM230.32 231.08H231.23C231.272 231.081 231.313 231.074 231.352 231.059C231.391 231.044 231.426 231.022 231.456 230.993C231.486 230.964 231.509 230.929 231.526 230.891C231.542 230.853 231.55 230.812 231.55 230.77V166.7C231.55 166.615 231.516 166.534 231.456 166.474C231.396 166.414 231.315 166.38 231.23 166.38H230.32V231.08Z" fill="white" fill-opacity="0.42"/>
<path d="M3.2 237.21H1.33C0.978073 237.207 0.641299 237.066 0.392441 236.818C0.143582 236.569 0.00261668 236.232 5.20288e-10 235.88V203.81C-9.8477e-06 203.456 0.139791 203.117 0.388931 202.866C0.638071 202.615 0.976347 202.473 1.33 202.47H3.2V237.21ZM1.33 203.44C1.24157 203.443 1.15764 203.48 1.09602 203.543C1.03441 203.607 0.999962 203.692 1 203.78V235.88C1 235.923 1.00853 235.966 1.02512 236.006C1.0417 236.046 1.06601 236.083 1.09665 236.113C1.12729 236.144 1.16367 236.168 1.2037 236.185C1.24374 236.201 1.28667 236.21 1.33 236.21H2.2V203.47L1.33 203.44Z" fill="white" fill-opacity="0.42"/>
<path d="M124.94 65.53H98.87C98.1301 65.53 97.4204 65.2361 96.8972 64.7128C96.374 64.1896 96.08 63.48 96.08 62.74C96.08 62 96.374 61.2904 96.8972 60.7672C97.4204 60.2439 98.1301 59.95 98.87 59.95H124.95C125.69 59.95 126.4 60.2439 126.923 60.7672C127.446 61.2904 127.74 62 127.74 62.74C127.74 63.48 127.446 64.1896 126.923 64.7128C126.4 65.2361 125.69 65.53 124.95 65.53H124.94ZM98.87 60.95C98.3953 60.95 97.94 61.1386 97.6043 61.4743C97.2686 61.81 97.08 62.2653 97.08 62.74C97.08 63.2147 97.2686 63.67 97.6043 64.0057C97.94 64.3414 98.3953 64.53 98.87 64.53H124.95C125.425 64.53 125.88 64.3414 126.216 64.0057C126.551 63.67 126.74 63.2147 126.74 62.74C126.74 62.2653 126.551 61.81 126.216 61.4743C125.88 61.1386 125.425 60.95 124.95 60.95H98.87Z" fill="white" fill-opacity="0.42"/>
<path d="M86.64 66.99C85.7986 66.994 84.9749 66.7481 84.2734 66.2835C83.5719 65.8189 83.024 65.1565 82.6993 64.3803C82.3745 63.6041 82.2875 62.7489 82.4492 61.9232C82.611 61.0975 83.0141 60.3383 83.6077 59.7419C84.2013 59.1456 84.9585 58.7388 85.7835 58.5732C86.6084 58.4076 87.464 58.4906 88.2418 58.8116C89.0195 59.1327 89.6845 59.6774 90.1523 60.3768C90.6202 61.0761 90.87 61.8986 90.87 62.74C90.8674 63.8629 90.4215 64.9394 89.6294 65.7353C88.8372 66.5312 87.7629 66.9821 86.64 66.99ZM86.64 59.49C85.9964 59.486 85.3661 59.6733 84.829 60.028C84.2919 60.3827 83.8722 60.8889 83.6232 61.4824C83.3741 62.0759 83.3069 62.7299 83.43 63.3617C83.5532 63.9934 83.8611 64.5744 84.3148 65.0309C84.7685 65.4875 85.3476 65.799 85.9786 65.926C86.6095 66.053 87.264 65.9899 87.8591 65.7445C88.4541 65.4991 88.9629 65.0825 89.3209 64.5477C89.6789 64.0128 89.87 63.3836 89.87 62.74C89.8674 61.8823 89.5269 61.0602 88.9223 60.4518C88.3177 59.8435 87.4977 59.4979 86.64 59.49Z" fill="white" fill-opacity="0.42"/>
<path d="M137.13 66.99C136.289 66.99 135.468 66.7407 134.769 66.2737C134.07 65.8067 133.525 65.143 133.204 64.3664C132.882 63.5898 132.798 62.7353 132.962 61.9109C133.126 61.0864 133.53 60.3292 134.125 59.7348C134.719 59.1404 135.476 58.7356 136.301 58.5717C137.125 58.4077 137.98 58.4918 138.756 58.8135C139.533 59.1352 140.197 59.6799 140.664 60.3788C141.131 61.0777 141.38 61.8994 141.38 62.74C141.38 63.8672 140.932 64.9482 140.135 65.7452C139.338 66.5422 138.257 66.99 137.13 66.99ZM137.13 59.49C136.487 59.49 135.859 59.6806 135.324 60.0377C134.79 60.3948 134.373 60.9024 134.127 61.4963C133.881 62.0901 133.817 62.7436 133.942 63.374C134.068 64.0045 134.377 64.5836 134.832 65.0381C135.286 65.4926 135.866 65.8021 136.496 65.9276C137.126 66.053 137.78 65.9886 138.374 65.7426C138.968 65.4966 139.475 65.0801 139.832 64.5456C140.189 64.0111 140.38 63.3828 140.38 62.74C140.377 61.8789 140.034 61.0537 139.425 60.4448C138.816 59.8359 137.991 59.4926 137.13 59.49Z" fill="white" fill-opacity="0.42"/>
<path d="M147.03 66.08C146.369 66.08 145.724 65.8841 145.174 65.5171C144.625 65.1501 144.197 64.6285 143.944 64.0182C143.691 63.4079 143.625 62.7363 143.754 62.0884C143.883 61.4405 144.201 60.8454 144.668 60.3783C145.135 59.9112 145.73 59.5931 146.378 59.4642C147.026 59.3353 147.698 59.4014 148.308 59.6542C148.918 59.907 149.44 60.3351 149.807 60.8844C150.174 61.4337 150.37 62.0794 150.37 62.74C150.367 63.625 150.015 64.473 149.389 65.0988C148.763 65.7246 147.915 66.0774 147.03 66.08ZM147.03 60.4C146.567 60.4 146.115 60.5372 145.73 60.7944C145.345 61.0515 145.045 61.4169 144.868 61.8445C144.691 62.2721 144.645 62.7426 144.735 63.1965C144.825 63.6504 145.048 64.0674 145.375 64.3946C145.703 64.7219 146.12 64.9447 146.573 65.035C147.027 65.1253 147.498 65.079 147.925 64.9019C148.353 64.7248 148.718 64.4248 148.976 64.04C149.233 63.6552 149.37 63.2028 149.37 62.74C149.37 62.1194 149.123 61.5242 148.685 61.0854C148.246 60.6465 147.651 60.4 147.03 60.4Z" fill="white" fill-opacity="0.42"/>
<path d="M76.68 66.08C76.0194 66.08 75.3737 65.8841 74.8244 65.5171C74.2752 65.1501 73.8471 64.6285 73.5943 64.0182C73.3415 63.4079 73.2753 62.7363 73.4042 62.0884C73.5331 61.4405 73.8512 60.8454 74.3183 60.3783C74.7854 59.9112 75.3805 59.5931 76.0284 59.4642C76.6763 59.3353 77.3479 59.4014 77.9582 59.6542C78.5685 59.907 79.0901 60.3351 79.4571 60.8844C79.8241 61.4337 80.02 62.0794 80.02 62.74C80.02 63.6258 79.6681 64.4754 79.0418 65.1017C78.4154 65.7281 77.5658 66.08 76.68 66.08ZM76.68 60.4C76.2172 60.4 75.7648 60.5372 75.38 60.7944C74.9952 61.0515 74.6953 61.4169 74.5181 61.8445C74.341 62.2721 74.2947 62.7426 74.385 63.1965C74.4753 63.6504 74.6981 64.0674 75.0254 64.3946C75.3526 64.7219 75.7696 64.9447 76.2235 65.035C76.6774 65.1253 77.1479 65.079 77.5755 64.9019C78.0031 64.7248 78.3685 64.4248 78.6257 64.04C78.8828 63.6552 79.02 63.2028 79.02 62.74C79.02 62.1194 78.7735 61.5242 78.3347 61.0854C77.8958 60.6465 77.3006 60.4 76.68 60.4Z" fill="white" fill-opacity="0.42"/>
</g>
<defs>
<clipPath id="clip0_32_520">
<rect width="233" height="320" fill="white"/>
</clipPath>
</defs>
</svg>
