<svg width="35" height="35" viewBox="0 0 35 35" fill="none" xmlns="http://www.w3.org/2000/svg">
    <path d="M29.8743 5.12574C28.2531 3.49561 26.3247 2.20323 24.2006 1.32341C22.0765 0.443583 19.7991 -0.00620952 17.5 6.47464e-05C12.8438 6.47464e-05 8.46198 1.53562 5.16163 4.32403C1.83313 7.13584 0 10.883 0 14.8751C0 18.6972 1.70034 22.3288 4.78793 25.1009C7.83585 27.8378 11.9457 29.4779 16.3598 29.7191C16.5095 29.7265 16.6507 29.791 16.7543 29.8994C16.8579 30.0077 16.9161 30.1516 16.9169 30.3015V33.2069C16.9171 33.437 16.9626 33.6648 17.0509 33.8773C17.1391 34.0898 17.2684 34.2828 17.4313 34.4453C17.5941 34.6079 17.7875 34.7367 18.0001 34.8245C18.2128 34.9122 18.4407 34.9573 18.6708 34.9569C18.7133 34.9569 18.7557 34.9554 18.7982 34.9523C22.1396 34.7036 25.3394 33.5009 28.0174 31.4872C30.6953 29.4735 32.7389 26.7333 33.9054 23.5922C35.0718 20.4512 35.312 17.0413 34.5974 13.7677C33.8828 10.4942 32.2435 7.49457 29.8743 5.12531L29.8743 5.12574ZM7.58334 13.9788C7.00648 13.9788 6.44257 13.8077 5.96292 13.4872C5.48328 13.1667 5.10944 12.7112 4.88869 12.1783C4.66793 11.6453 4.61017 11.0589 4.72271 10.4931C4.83525 9.92732 5.11304 9.40762 5.52094 8.99972C5.92884 8.59181 6.44855 8.31403 7.01432 8.20149C7.5801 8.08895 8.16655 8.14671 8.6995 8.36746C9.23245 8.58822 9.68797 8.96206 10.0085 9.4417C10.3289 9.92134 10.5 10.4853 10.5 11.0621C10.5 11.8357 10.1927 12.5775 9.64573 13.1245C9.09875 13.6715 8.35689 13.9788 7.58334 13.9788ZM15.75 9.31211C15.1731 9.31211 14.6092 9.14105 14.1296 8.82056C13.65 8.50008 13.2761 8.04456 13.0554 7.5116C12.8346 6.97865 12.7768 6.39221 12.8894 5.82643C13.0019 5.26065 13.2797 4.74095 13.6876 4.33305C14.0955 3.92514 14.6152 3.64736 15.181 3.53482C15.7468 3.42228 16.3332 3.48004 16.8662 3.70079C17.3991 3.92155 17.8546 4.29539 18.1751 4.77503C18.4956 5.25467 18.6667 5.81858 18.6667 6.39544C18.6667 7.16899 18.3594 7.91086 17.8124 8.45784C17.2654 9.00482 16.5236 9.31211 15.75 9.31211ZM21.5833 8.72878C21.5833 8.15192 21.7544 7.58801 22.0749 7.10836C22.3954 6.62872 22.8509 6.25488 23.3839 6.03413C23.9168 5.81337 24.5033 5.75561 25.069 5.86815C25.6348 5.98069 26.1545 6.25848 26.5624 6.66638C26.9703 7.07429 27.2481 7.59399 27.3606 8.15976C27.4732 8.72554 27.4154 9.31199 27.1947 9.84494C26.9739 10.3779 26.6001 10.8334 26.1204 11.1539C25.6408 11.4744 25.0769 11.6454 24.5 11.6454C23.7265 11.6454 22.9846 11.3382 22.4376 10.7912C21.8906 10.2442 21.5833 9.50233 21.5833 8.72878ZM28.5833 19.8121C28.0065 19.8121 27.4426 19.6411 26.9629 19.3206C26.4833 19.0001 26.1095 18.5446 25.8887 18.0116C25.6679 17.4787 25.6102 16.8922 25.7227 16.3264C25.8353 15.7607 26.1131 15.241 26.521 14.8331C26.9289 14.4252 27.4486 14.1474 28.0143 14.0348C28.5801 13.9223 29.1666 13.98 29.6995 14.2008C30.2325 14.4216 30.688 14.7954 31.0085 15.275C31.329 15.7547 31.5 16.3186 31.5 16.8955C31.5 17.669 31.1927 18.4109 30.6457 18.9578C30.0988 19.5048 29.3569 19.8121 28.5833 19.8121Z" fill="white"/>
</svg>
