<svg width="150" height="150" viewBox="0 0 150 150" fill="none" xmlns="http://www.w3.org/2000/svg">
    <path d="M66.0022 7.20484C70.5622 7.30725 70.9897 7.34822 71.4986 7.73737C72.3536 8.37231 72.9439 9.35544 73.1882 10.6048C73.6157 12.6121 74.6743 12.4277 62.9893 12.4892L52.6886 12.5301L51.5282 13.6157L50.3882 14.6807L50.2661 40.6928L50.1439 66.7048L47.5789 74.4879C45.1361 81.9434 45.0139 82.353 44.9325 84.3193C44.8307 86.6132 45.1157 88.559 45.8282 90.5867C46.0929 91.3446 46.3168 92.0614 46.3168 92.1843C46.3168 92.3687 43.1004 92.4096 33.3086 92.3687C20.4632 92.3072 20.28 92.3072 19.71 91.8771C19.4047 91.6518 18.9161 91.0373 18.6311 90.5458L18.1222 89.6446L18.0611 49.4181L18 9.21207L19.1807 8.10605L20.3614 7.00002L40.7186 7.04099C51.915 7.06147 63.2947 7.12292 66.0022 7.20484ZM27.9547 17.4663C26.8961 17.7325 25.5729 18.8181 24.84 19.9856C24.3514 20.8048 24.2293 21.2554 24.1682 22.4434C24.1275 23.2627 24.1886 24.2868 24.3107 24.7578C24.8197 26.6217 26.835 28.4651 28.9114 28.9362C29.8682 29.141 30.2143 29.141 31.2729 28.8337C33.5732 28.1988 34.9779 26.7856 35.67 24.4097C36.3418 22.1157 35.4257 19.5554 33.4511 18.1832C31.8632 17.0976 30.2754 16.8723 27.9547 17.4663ZM27.8529 35.9205C26.3872 36.4735 24.9214 37.9277 24.4532 39.2795C24.27 39.8121 24.1275 40.8771 24.1275 41.6145C24.1275 44.9325 26.6518 47.4108 30.0311 47.4108C31.8022 47.4108 33.2272 46.7759 34.3875 45.4855C36.0568 43.6217 36.3418 41.2048 35.1814 38.8084C33.8175 36.0229 30.7639 34.8145 27.8529 35.9205Z" fill="#D6D6D6"/>
    <path d="M63.2131 34.4457V52.2445L62.4396 52.4493C62.0324 52.5517 61.2792 52.7565 60.7703 52.8794C59.2028 53.2891 57.9203 54.1288 56.4749 55.7264L55.0703 57.2626V38.2144V19.1867L55.7013 18.4084C56.0474 17.9782 56.597 17.5072 56.9431 17.3228C57.452 17.0565 60.8517 16.6469 62.7449 16.6264H63.2131V34.4457Z" fill="#D6D6D6"/>
    <path d="M74 17C74 17 64 16 59 16.9999C48.852 19.0294 62.0001 43.5 62.0001 43.5C62.5001 46.5 61.6 52.9 62 52.5C62.4 52.1 68.5 52 71 54L73 53.5L74 17Z" fill="#D6D6D6"/>
    <path d="M91.7131 17.0157C93.4231 17.159 94.3188 17.5891 95.357 18.7976L95.9881 19.5145V31.7626V44.0313L98.1663 45.0964C100.019 45.9976 100.609 46.4277 101.892 47.7385C104.335 50.1964 105.393 52.6747 106.065 57.3855C106.228 58.5735 106.37 59.6385 106.37 59.7614C106.37 59.9048 106.859 59.9458 107.917 59.8843C109.851 59.7614 111.643 60.2325 113.251 61.2771C115.144 62.4855 116.61 64.8819 117.974 68.8759L118.625 70.8422L120.274 71.2928C125.323 72.6446 128.397 76.7614 130.473 84.9542C131.552 89.1735 131.654 90.2386 131.756 97.9602C131.939 110.864 131.45 113.547 126.626 125.898C122.921 135.401 121.658 138.965 120.824 142.119L120.6 143H109.973C104.131 143 94.0542 142.939 87.5806 142.857L75.8345 142.734L73.9617 139.641C70.8878 134.52 68.3635 130.014 66.2667 125.795C63.0299 119.323 62.0935 117.029 60.5667 111.867C57.961 102.999 56.6581 99.5373 54.032 94.5602C50.8156 88.4361 50.3474 87.3711 50.2253 85.9373C50.1031 84.4012 50.3678 82.9879 51.3245 79.7313C52.3628 76.3108 55.2535 67.4626 56.6378 63.5506C57.676 60.5807 57.9203 60.0482 58.7753 59.1265C60.1188 57.6313 61.4013 57.0783 63.5185 57.0783C64.9638 57.0783 65.3303 57.1602 66.511 57.7542C68.1395 58.553 69.3406 59.8434 69.931 61.4C70.6638 63.3867 70.6231 63.612 67.936 75.1024C67.366 77.4578 66.8163 80.0795 66.6942 80.9193C66.4703 82.394 66.4703 82.4759 66.9995 83.5819C67.7731 85.1385 70.1549 88.6819 70.9895 89.4807C73.2288 91.6518 75.5699 89.0301 75.9567 83.9096L76.0992 82.2096L73.636 82.1277C72.2924 82.1072 71.132 82.0048 71.0506 81.9434C70.9895 81.8614 71.1524 80.9398 71.417 79.8952C72.0685 77.4578 73.3917 71.5181 74.2263 67.4217C74.776 64.6771 74.837 63.9602 74.7556 62.0964C74.5724 58.3277 73.5749 56.1157 71.1931 54.2313L69.931 53.2072V35.0193V16.8313L80.0485 16.8723C85.6263 16.8928 90.8785 16.9542 91.7131 17.0157Z" fill="#D6D6D6"/>
</svg>
