<svg width="20" height="20" viewBox="0 0 20 20" fill="none" xmlns="http://www.w3.org/2000/svg">
<path fill-rule="evenodd" clip-rule="evenodd" d="M3.03812 7.38951C3.03812 3.54502 6.15468 0.428467 9.99916 0.428467C13.8436 0.428467 16.9602 3.54502 16.9602 7.38951V15.2207H18.7005C19.181 15.2207 19.5706 15.6102 19.5706 16.0908C19.5706 16.5714 19.181 16.9609 18.7005 16.9609H13.0138C12.8027 18.4368 11.5334 19.5713 9.99916 19.5713C8.46493 19.5713 7.19566 18.4368 6.98455 16.9609H1.29786C0.817305 16.9609 0.427734 16.5714 0.427734 16.0908C0.427734 15.6102 0.817305 15.2207 1.29786 15.2207H3.03812V7.38951ZM4.77838 15.2207H15.2199V7.38951C15.2199 4.50614 12.8825 2.16873 9.99916 2.16873C7.1158 2.16873 4.77838 4.50614 4.77838 7.38951V15.2207ZM8.76824 16.9609C8.94742 17.4679 9.43088 17.8311 9.99916 17.8311C10.5674 17.8311 11.0509 17.4679 11.2301 16.9609H8.76824Z" fill="#1B312F"/>
</svg>
