<svg width="27" height="27" viewBox="0 0 27 27" fill="none" xmlns="http://www.w3.org/2000/svg">
    <path d="M13.7596 25.5536C13.7596 25.3929 13.6731 25.3125 13.5 25.3125C12.8618 25.3125 12.3128 25.0991 11.8531 24.6722C11.3933 24.2453 11.1635 23.7355 11.1635 23.1429C11.1635 22.9821 11.0769 22.9018 10.9038 22.9018C10.7308 22.9018 10.6442 22.9821 10.6442 23.1429C10.6442 23.8761 10.9228 24.5014 11.4799 25.0187C12.037 25.536 12.7103 25.7946 13.5 25.7946C13.6731 25.7946 13.7596 25.7143 13.7596 25.5536ZM2.95312 21.2143H24.0469C21.1695 18.2009 19.7308 14.0223 19.7308 8.67857C19.7308 8.1663 19.601 7.63895 19.3413 7.09654C19.0817 6.55413 18.7085 6.03683 18.2218 5.54464C17.735 5.05246 17.0778 4.64816 16.2503 4.33175C15.4228 4.01535 14.506 3.85714 13.5 3.85714C12.494 3.85714 11.5772 4.01535 10.7497 4.33175C9.92218 4.64816 9.26502 5.05246 8.77824 5.54464C8.29147 6.03683 7.91827 6.55413 7.65865 7.09654C7.39904 7.63895 7.26923 8.1663 7.26923 8.67857C7.26923 14.0223 5.83053 18.2009 2.95312 21.2143ZM27 21.2143C27 21.7366 26.7945 22.1886 26.3834 22.5703C25.9724 22.952 25.4856 23.1429 24.9231 23.1429H17.6538C17.6538 24.2076 17.2482 25.1166 16.4369 25.87C15.6256 26.6233 14.6466 27 13.5 27C12.3534 27 11.3744 26.6233 10.5631 25.87C9.7518 25.1166 9.34615 24.2076 9.34615 23.1429H2.07692C1.51442 23.1429 1.02764 22.952 0.616587 22.5703C0.205529 22.1886 0 21.7366 0 21.2143C0.540865 20.7924 1.03305 20.3504 1.47656 19.8884C1.92007 19.4263 2.37981 18.8262 2.85577 18.0879C3.33173 17.3496 3.73468 16.5536 4.0646 15.6998C4.39453 14.846 4.66496 13.8114 4.8759 12.596C5.08684 11.3806 5.19231 10.0748 5.19231 8.67857C5.19231 7.15179 5.82512 5.73298 7.09075 4.42215C8.35637 3.11133 10.0168 2.31529 12.0721 2.03404C11.9856 1.84319 11.9423 1.64732 11.9423 1.44643C11.9423 1.04464 12.0938 0.703125 12.3966 0.421875C12.6995 0.140625 13.0673 0 13.5 0C13.9327 0 14.3005 0.140625 14.6034 0.421875C14.9063 0.703125 15.0577 1.04464 15.0577 1.44643C15.0577 1.64732 15.0144 1.84319 14.9279 2.03404C16.9832 2.31529 18.6436 3.11133 19.9093 4.42215C21.1749 5.73298 21.8077 7.15179 21.8077 8.67857C21.8077 10.0748 21.9132 11.3806 22.1241 12.596C22.335 13.8114 22.6055 14.846 22.9354 15.6998C23.2653 16.5536 23.6683 17.3496 24.1442 18.0879C24.6202 18.8262 25.0799 19.4263 25.5234 19.8884C25.9669 20.3504 26.4591 20.7924 27 21.2143Z" fill="#BEBEBE"/>
</svg>
