<svg width="20" height="20" viewBox="0 0 20 20" fill="none" xmlns="http://www.w3.org/2000/svg">
<path fill-rule="evenodd" clip-rule="evenodd" d="M0.857422 9.19579C0.857422 4.59052 4.59076 0.857178 9.19603 0.857178C13.8013 0.857178 17.5346 4.59052 17.5346 9.19579C17.5346 11.1517 16.8613 12.9503 15.7337 14.3724L18.8613 17.5C19.2371 17.8758 19.2371 18.4852 18.8613 18.861C18.4854 19.2369 17.876 19.2369 17.5002 18.861L14.3726 15.7334C12.9505 16.861 11.1519 17.5344 9.19603 17.5344C4.59076 17.5344 0.857422 13.8011 0.857422 9.19579ZM9.19603 2.78199C5.65381 2.78199 2.78223 5.65356 2.78223 9.19579C2.78223 12.738 5.65381 15.6096 9.19603 15.6096C12.7383 15.6096 15.6098 12.738 15.6098 9.19579C15.6098 5.65356 12.7383 2.78199 9.19603 2.78199Z" fill="#1B312F"/>
</svg>
