<svg width="16" height="20" viewBox="0 0 16 20" fill="none" xmlns="http://www.w3.org/2000/svg">
<path d="M12.1503 3.72486C11.1217 3.72486 10.2878 2.89102 10.2878 1.86243C10.2878 0.833839 11.1217 0 12.1503 0C13.1789 0 14.0127 0.833839 14.0127 1.86243C14.0127 2.89102 13.1789 3.72486 12.1503 3.72486Z" fill="#FF8368"/>
<path d="M0.443123 17.852C2.66258 14.5394 5.20044 10.2245 5.62702 9.49612C5.66566 9.36398 5.71666 9.2299 5.78699 9.09504C6.29394 8.10703 6.82408 7.13022 7.36503 6.15998C6.79162 6.2048 6.21666 6.24923 5.64363 6.29367C5.24951 7.07033 4.85732 7.84737 4.46397 8.62364C3.83066 9.87441 1.95625 8.77395 2.58801 7.52666C3.09496 6.52473 3.69581 4.27127 5.00454 4.16965C6.39711 4.06146 7.7893 3.95326 9.18148 3.84546C9.21549 3.84275 9.24446 3.84739 9.27692 3.84739C10.3295 3.56571 11.5632 4.30836 11.7866 5.38139C12.4983 6.92272 13.5203 8.12635 15.2352 8.62866C16.5775 9.02124 16.0056 11.1182 14.6575 10.7241C12.9624 10.228 11.7448 9.25656 10.8217 7.97797C10.2626 8.97487 9.71664 9.97796 9.19346 10.995C10.3438 11.7882 11.3488 12.7477 12.2294 13.8547C12.4751 14.1634 12.5172 14.481 12.4346 14.7604C12.4376 14.8647 12.4311 14.9729 12.4013 15.0904C12.0625 16.4319 11.724 17.7712 11.3847 19.1112C11.025 20.5393 8.76417 20.1336 9.127 18.6962C9.44964 17.4192 9.77267 16.1421 10.0953 14.8643C9.2862 13.9103 8.33218 13.0803 7.24216 12.4606C6.98559 12.3145 6.82408 12.1132 6.73443 11.8914C5.24333 14.1765 3.75184 17.338 2.2615 19.2542C1.35193 20.4234 -0.467613 19.0235 0.443123 17.852Z" fill="#FF8368"/>
</svg>
