<svg width="26" height="20" viewBox="0 0 26 20" fill="none" xmlns="http://www.w3.org/2000/svg">
    <path d="M19.88 0.620117C18.23 0.620117 16.75 1.35012 15.75 2.50012H7C5.78 2.50012 4.76 3.38012 4.54 4.54012C3.53 4.73012 2.73 5.53012 2.54 6.54012C1.38 6.76012 0.5 7.78012 0.5 9.00012V17.0001C0.5 18.3701 1.62 19.5001 3 19.5001H17C18.22 19.5001 19.24 18.6101 19.46 17.4601C20.47 17.2701 21.27 16.4701 21.46 15.4601C22.62 15.2401 23.5 14.2101 23.5 13.0001V10.2501C24.65 9.25012 25.38 7.77012 25.38 6.12012C25.38 3.09012 22.91 0.620117 19.88 0.620117ZM7 3.50012H15.05C14.87 3.82012 14.73 4.15012 14.62 4.50012H5.59C5.79 3.92012 6.35 3.50012 7 3.50012ZM5 5.50012H14.42C14.39 5.70012 14.38 5.91012 14.38 6.12012C14.38 6.25012 14.38 6.38012 14.4 6.50012H3.59C3.79 5.92012 4.35 5.50012 5 5.50012ZM18.5 17.0001C18.5 17.8201 17.83 18.5001 17 18.5001H3C2.17 18.5001 1.5 17.8201 1.5 17.0001V9.00012C1.5 8.17012 2.17 7.50012 3 7.50012H14.56C15.05 9.42012 16.57 10.9501 18.5 11.4401V17.0001ZM20.5 15.0001C20.5 15.6501 20.08 16.2101 19.5 16.4101V11.6001C19.62 11.6201 19.75 11.6201 19.88 11.6201C20.09 11.6201 20.3 11.6101 20.5 11.5801V15.0001ZM22.5 13.0001C22.5 13.6501 22.08 14.2101 21.5 14.4101V11.3801C21.85 11.2701 22.18 11.1301 22.5 10.9501V13.0001ZM19.88 10.6201C19.22 10.6201 18.59 10.4801 18.03 10.2201C17.03 9.77012 16.23 8.97012 15.78 7.97012C15.52 7.41012 15.38 6.78012 15.38 6.12012C15.38 3.64012 17.39 1.62012 19.88 1.62012C22.36 1.62012 24.38 3.64012 24.38 6.12012C24.38 8.60012 22.36 10.6201 19.88 10.6201Z" fill="black"/>
    <path d="M7.8 10.8C7.8 11.79 6.99 12.6 6 12.6C5.01 12.6 4.2 11.79 4.2 10.8C4.2 9.8 5.01 9 6 9C6.99 9 7.8 9.8 7.8 10.8Z" fill="black"/>
    <path d="M8.5 15.1001C8.5 15.6501 8.28 16.1501 7.92 16.5101C7.56 16.8801 7.06 17.1001 6.5 17.1001H5.5C4.39 17.1001 3.5 16.2001 3.5 15.1001C3.5 14.5401 3.95 14.1001 4.5 14.1001H7.5C8.05 14.1001 8.5 14.5401 8.5 15.1001Z" fill="black"/>
    <path d="M15.5 11.5C15.5 11.77 15.28 12 15 12H11C10.72 12 10.5 11.77 10.5 11.5C10.5 11.22 10.72 11 11 11H15C15.28 11 15.5 11.22 15.5 11.5Z" fill="black"/>
    <path d="M22.88 6C22.88 6.27 22.65 6.5 22.38 6.5H20.38V8.5C20.38 8.77 20.15 9 19.88 9C19.6 9 19.38 8.77 19.38 8.5V6.5H17.38C17.1 6.5 16.88 6.27 16.88 6C16.88 5.72 17.1 5.5 17.38 5.5H19.38V3.5C19.38 3.22 19.6 3 19.88 3C20.15 3 20.38 3.22 20.38 3.5V5.5H22.38C22.65 5.5 22.88 5.72 22.88 6Z" fill="black"/>
    <path d="M15.5 14.5C15.5 14.77 15.28 15 15 15H11C10.72 15 10.5 14.77 10.5 14.5C10.5 14.22 10.72 14 11 14H15C15.28 14 15.5 14.22 15.5 14.5Z" fill="black"/>
</svg>
