<svg width="9" height="10" viewBox="0 0 9 10" fill="none" xmlns="http://www.w3.org/2000/svg">
    <path d="M2.76901 3.66666C2.86081 3.66666 2.94886 3.70178 3.01377 3.76429C3.07869 3.8268 3.11516 3.91159 3.11516 3.99999V7.99999C3.11516 8.0884 3.07869 8.17318 3.01377 8.23569C2.94886 8.29821 2.86081 8.33333 2.76901 8.33333C2.6772 8.33333 2.58915 8.29821 2.52424 8.23569C2.45932 8.17318 2.42285 8.0884 2.42285 7.99999V3.99999C2.42285 3.91159 2.45932 3.8268 2.52424 3.76429C2.58915 3.70178 2.6772 3.66666 2.76901 3.66666ZM4.49977 3.66666C4.59158 3.66666 4.67963 3.70178 4.74454 3.76429C4.80946 3.8268 4.84593 3.91159 4.84593 3.99999V7.99999C4.84593 8.0884 4.80946 8.17318 4.74454 8.23569C4.67963 8.29821 4.59158 8.33333 4.49977 8.33333C4.40797 8.33333 4.31992 8.29821 4.25501 8.23569C4.19009 8.17318 4.15362 8.0884 4.15362 7.99999V3.99999C4.15362 3.91159 4.19009 3.8268 4.25501 3.76429C4.31992 3.70178 4.40797 3.66666 4.49977 3.66666ZM6.5767 3.99999C6.5767 3.91159 6.54023 3.8268 6.47531 3.76429C6.4104 3.70178 6.32235 3.66666 6.23054 3.66666C6.13874 3.66666 6.05069 3.70178 5.98578 3.76429C5.92086 3.8268 5.88439 3.91159 5.88439 3.99999V7.99999C5.88439 8.0884 5.92086 8.17318 5.98578 8.23569C6.05069 8.29821 6.13874 8.33333 6.23054 8.33333C6.32235 8.33333 6.4104 8.29821 6.47531 8.23569C6.54023 8.17318 6.5767 8.0884 6.5767 7.99999V3.99999Z" fill="#DFDFDF"/>
    <path fill-rule="evenodd" clip-rule="evenodd" d="M9 2C9 2.17681 8.92706 2.34638 8.79723 2.4714C8.66739 2.59643 8.4913 2.66667 8.30769 2.66667H7.96154V8.66667C7.96154 9.02029 7.81566 9.35943 7.55599 9.60948C7.29633 9.85952 6.94415 10 6.57692 10H2.42308C2.05585 10 1.70367 9.85952 1.44401 9.60948C1.18434 9.35943 1.03846 9.02029 1.03846 8.66667V2.66667H0.692308C0.508696 2.66667 0.332605 2.59643 0.202772 2.4714C0.0729393 2.34638 0 2.17681 0 2V1.33333C0 1.15652 0.0729393 0.986953 0.202772 0.861929C0.332605 0.736905 0.508696 0.666667 0.692308 0.666667H3.11538C3.11538 0.489856 3.18832 0.320286 3.31816 0.195262C3.44799 0.0702379 3.62408 0 3.80769 0L5.19231 0C5.37592 0 5.55201 0.0702379 5.68184 0.195262C5.81168 0.320286 5.88462 0.489856 5.88462 0.666667H8.30769C8.4913 0.666667 8.66739 0.736905 8.79723 0.861929C8.92706 0.986953 9 1.15652 9 1.33333V2ZM1.81246 2.66667L1.73077 2.706V8.66667C1.73077 8.84348 1.80371 9.01305 1.93354 9.13807C2.06337 9.2631 2.23947 9.33333 2.42308 9.33333H6.57692C6.76053 9.33333 6.93663 9.2631 7.06646 9.13807C7.19629 9.01305 7.26923 8.84348 7.26923 8.66667V2.706L7.18754 2.66667H1.81246ZM0.692308 2V1.33333H8.30769V2H0.692308Z" fill="#DFDFDF"/>
</svg>
