<svg width="18" height="18" viewBox="0 0 18 18" fill="none" xmlns="http://www.w3.org/2000/svg">
    <path d="M15.3638 2.63616C11.849 -0.87873 6.15027 -0.878731 2.63612 2.63623C-0.87873 6.15108 -0.878731 11.8497 2.63626 15.3639C6.15027 18.8787 11.849 18.8787 15.3638 15.3638C18.8787 11.8497 18.8787 6.15108 15.3638 2.63616ZM14.3033 14.3031C11.3741 17.2323 6.62527 17.2323 3.69693 14.3033C0.767777 11.3748 0.767777 6.62593 3.69686 3.69686C6.62527 0.767742 11.3741 0.767742 14.3032 3.69686C17.2323 6.62597 17.2323 11.3748 14.3033 14.3031Z" fill="#F05D52"/>
    <path d="M8.99999 3.00024C8.58578 3.00024 8.25 3.33602 8.25 3.75023V11.2502C8.25 11.6644 8.58578 12.0002 8.99999 12.0002C9.4142 12.0002 9.74998 11.6644 9.74998 11.2502V3.75023C9.74998 3.33602 9.4142 3.00024 8.99999 3.00024Z" fill="#F05D52"/>
    <path d="M8.99999 13.5002C8.58599 13.5002 8.25 13.8362 8.25 14.2502C8.25 14.6642 8.58599 15.0002 8.99999 15.0002C9.41399 15.0002 9.74998 14.6642 9.74998 14.2502C9.74998 13.8362 9.41399 13.5002 8.99999 13.5002Z" fill="#F05D52"/>
</svg>
