<svg width="16" height="21" fill="none" xmlns="http://www.w3.org/2000/svg">
    <path d="M4.75 3C4.75 1.75736 5.75736.75 7 .75h2c1.2426 0 2.25 1.00736 2.25 2.25v2.25h-6.5V3z" stroke="#04B4A6" stroke-width="1.5"/>
    <path fill-rule="evenodd" clip-rule="evenodd" d="M4.04148 2.5C4.0142 2.6626 4 2.82964 4 3v1H3c-.82843 0-1.5.67157-1.5 1.5v12c0 .8284.67157 1.5 1.5 1.5h10c.8284 0 1.5-.6716 1.5-1.5v-12c0-.82843-.6716-1.5-1.5-1.5h-1V3c0-.17036-.0142-.3374-.0415-.5H13c1.6569 0 3 1.34315 3 3v12c0 1.6569-1.3431 3-3 3H3c-1.65685 0-3-1.3431-3-3v-12c0-1.65685 1.34315-3 3-3h1.04148z" fill="#04B4A6"/>
    <path fill="#04B4A6" d="M4 9h8v1.5H4zM4 13h6v1.5H4z"/>
</svg>
