<svg width="18" height="18" viewBox="0 0 18 18" fill="none" xmlns="http://www.w3.org/2000/svg">
<path fill-rule="evenodd" clip-rule="evenodd" d="M5.58854 1.91667C5.40157 1.91667 5.25 2.06824 5.25 2.25521V3.58333H12.4115C13.5189 3.58333 14.4167 4.4811 14.4167 5.58854V12.75H15.7448C15.9318 12.75 16.0833 12.5984 16.0833 12.4115V2.25521C16.0833 2.06824 15.9318 1.91667 15.7448 1.91667H5.58854ZM14.4167 14.4167H15.7448C16.8522 14.4167 17.75 13.5189 17.75 12.4115V2.25521C17.75 1.14776 16.8522 0.25 15.7448 0.25H5.58854C4.4811 0.25 3.58333 1.14776 3.58333 2.25521V3.58333H2.25521C1.14776 3.58333 0.25 4.4811 0.25 5.58854V15.7448C0.25 16.8522 1.14776 17.75 2.25521 17.75H12.4115C13.5189 17.75 14.4167 16.8522 14.4167 15.7448V14.4167ZM2.25521 5.25C2.06824 5.25 1.91667 5.40157 1.91667 5.58854V15.7448C1.91667 15.9318 2.06824 16.0833 2.25521 16.0833H12.4115C12.5984 16.0833 12.75 15.9318 12.75 15.7448V5.58854C12.75 5.40157 12.5984 5.25 12.4115 5.25H2.25521Z" fill="#40817D"/>
</svg>
