<svg width="11" height="11" viewBox="0 0 11 11" fill="none" xmlns="http://www.w3.org/2000/svg">
    <path d="M1.40754 10.7866C1.45095 10.7828 1.4939 10.7736 1.53584 10.7592L3.63287 10.035C3.72514 10.0032 3.80716 9.94681 3.86976 9.87213L9.88167 2.69998C10.0665 2.47944 10.1545 2.20035 10.1294 1.91383C10.1043 1.62732 9.96927 1.36773 9.74892 1.18265L8.82439 0.406065C8.38369 0.0358915 7.67832 0.0976029 7.3086 0.538679L1.29669 7.71083C1.23413 7.78556 1.19294 7.87585 1.1775 7.97212L0.829275 10.1652C0.816399 10.246 0.822104 10.3287 0.845957 10.4071C0.86981 10.4854 0.911183 10.5572 0.966932 10.6171C1.02268 10.677 1.09134 10.7234 1.16769 10.7528C1.24403 10.7822 1.32606 10.7937 1.40754 10.7866ZM8.13287 1.23104L9.0574 2.00762L8.28176 2.93295L7.35723 2.15637L8.13287 1.23104ZM2.21681 8.28884L6.66571 2.98134L7.59025 3.75792L3.14081 9.06547L2.0325 9.44789L2.21681 8.28884Z" fill="#DFDFDF"/>
</svg>
