<svg width="70" height="70" viewBox="0 0 70 70" fill="none" xmlns="http://www.w3.org/2000/svg">
    <path d="M69.986 26.7605C69.9787 26.6801 69.9627 26.6007 69.9381 26.5237C69.9221 26.4549 69.8998 26.3878 69.8717 26.323C69.839 26.2597 69.7999 26.1998 69.7551 26.1444C69.7101 26.0787 69.658 26.0181 69.5999 25.9635C69.5811 25.9473 69.5731 25.925 69.5532 25.9087L58.3328 17.1945V8.16294C58.3328 6.22992 56.7657 4.66277 54.8327 4.66277H42.1888L37.1263 0.732039C35.8756 -0.243362 34.1218 -0.243362 32.8712 0.732039L27.8076 4.66277H15.1637C13.2307 4.66277 11.6635 6.22978 11.6635 8.16294V17.1946L0.446683 25.9088C0.426858 25.9252 0.418654 25.9474 0.40006 25.9637C0.341951 26.0181 0.289859 26.0788 0.244876 26.1446C0.20003 26.1999 0.160926 26.2597 0.128249 26.3231C0.0999466 26.3878 0.077797 26.4551 0.0618001 26.5238C0.0374629 26.5997 0.021466 26.6779 0.013946 26.7572C0.013946 26.7817 0 26.8028 0 26.8272V66.4991C0.00164071 67.2413 0.241731 67.9632 0.68486 68.5584C0.691833 68.5689 0.693063 68.5817 0.70113 68.591C0.709334 68.6003 0.726834 68.6109 0.738456 68.6237C1.39392 69.4862 2.41335 69.9947 3.49663 69.9993H66.4999C67.5874 69.996 68.6111 69.4851 69.2673 68.618C69.2766 68.6064 69.2907 68.6028 69.2988 68.5912C69.307 68.5796 69.3081 68.569 69.3152 68.5585C69.7583 67.9632 69.9984 67.2413 70.0001 66.4993V26.8305C69.9999 26.806 69.9872 26.785 69.986 26.7605ZM34.2981 2.57305C34.7055 2.24928 35.2825 2.24928 35.6899 2.57305L38.3815 4.66263H31.6146L34.2981 2.57305ZM3.79059 67.666L34.2982 43.9685C34.7059 43.6453 35.2825 43.6453 35.6901 43.9685L66.2058 67.666H3.79059ZM67.6666 65.847L37.1263 42.1274C35.8753 41.1528 34.1221 41.1528 32.8712 42.1274L2.32981 65.847V28.6074L21.449 43.454C21.9584 43.849 22.6916 43.7563 23.0866 43.2469C23.4816 42.7374 23.3889 42.0043 22.8794 41.6093L3.45574 26.5271L11.6637 20.1486V29.1639C11.6637 29.8083 12.1861 30.3306 12.8304 30.3306C13.4747 30.3306 13.997 29.8081 13.997 29.1639V8.16281C13.997 7.51842 14.5193 6.99613 15.1637 6.99613H54.8324C55.4768 6.99613 55.9991 7.51842 55.9991 8.16281V29.1639C55.9991 29.8083 56.5214 30.3306 57.1657 30.3306C57.8101 30.3306 58.3324 29.8081 58.3324 29.1639V20.1486L66.5404 26.5271L47.0829 41.6363C46.7482 41.8899 46.5755 42.3039 46.631 42.7202C46.6865 43.1366 46.9615 43.4909 47.351 43.648C47.7406 43.8051 48.1845 43.7409 48.5133 43.4796L67.6663 28.6074V65.847H67.6666Z" fill="#04C0B2"/>
    <path d="M48.9987 27.9972V23.3303C48.9987 15.5979 42.7304 9.32959 34.998 9.32959C27.2656 9.32959 20.9973 15.5979 20.9973 23.3303C20.9973 31.0627 27.2656 37.331 34.998 37.331C35.6424 37.331 36.1647 36.8087 36.1647 36.1643C36.1647 35.5199 35.6424 34.9977 34.998 34.9977C28.5544 34.9977 23.3308 29.774 23.3308 23.3304C23.3308 16.8868 28.5544 11.6632 34.998 11.6632C41.4416 11.6632 46.6652 16.8868 46.6652 23.3304V27.9973C46.6652 29.2861 45.6205 30.3308 44.3317 30.3308C43.043 30.3308 41.9982 29.2861 41.9982 27.9973V23.3304C41.9982 22.6861 41.4759 22.1638 40.8316 22.1638C40.1872 22.1638 39.6649 22.6861 39.6649 23.3304C39.6649 25.9079 37.5754 27.9973 34.998 27.9973C32.4206 27.9973 30.3312 25.9079 30.3312 23.3304C30.3312 20.753 32.4206 18.6636 34.998 18.6636C35.6424 18.6636 36.1647 18.1413 36.1647 17.4969C36.1647 16.8525 35.6424 16.3302 34.998 16.3302C31.865 16.3232 29.1087 18.3989 28.2501 21.412C27.3914 24.4252 28.6393 27.6419 31.3055 29.2876C33.9716 30.9332 37.4064 30.607 39.7151 28.4887C39.9691 30.956 42.1136 32.7906 44.5906 32.6595C47.0676 32.5282 49.0065 30.4776 48.9987 27.9972Z" fill="#04C0B2"/>
</svg>
