<svg width="16" height="16" viewBox="0 0 16 16" fill="none" xmlns="http://www.w3.org/2000/svg">
<path d="M15.0421 15.9209C15.5273 15.9209 15.9207 15.5274 15.9207 15.0421V0.878703C15.9207 0.393328 15.5274 0 15.0421 0H0.878703C0.393328 0 0 0.393328 0 0.878703V15.0421C0 15.5274 0.393266 15.9209 0.878703 15.9209H15.0421Z" fill="#0062FF"/>
<path d="M10.9848 15.9206V9.75515H13.0542L13.3641 7.35237H10.9848V5.81835C10.9848 5.12269 11.1779 4.64862 12.1755 4.64862L13.4478 4.64807V2.499C13.2278 2.46972 12.4725 2.4043 11.5938 2.4043C9.75937 2.4043 8.50346 3.52405 8.50346 5.58039V7.35237H6.42871V9.75515H8.50346V15.9206H10.9848Z" fill="white"/>
</svg>
