<svg fill="none" xmlns="http://www.w3.org/2000/svg" width="16" height="16"><path d="M14.5212 3.38214c-.0002-.00516-.0008-.01031-.0017-.01544-.02-.02857-.0445-.05315-.0651-.08115-.1494-.20349-.3076-.39935-.4745-.58761-.0457-.05144-.0915-.10231-.1383-.15262-.1719-.18404-.3521-.35953-.5408-.52642-.0348-.03088-.0674-.06286-.1023-.09317-.4649-.39825-.9739-.74194-1.5171-1.024278-.0218-.011421-.0446-.021133-.0669-.032587-.2419-.122915-.4899-.233403-.7431-.330965-.0572-.020563-.1092-.040022-.1635-.05717-.2252-.08115-.4539-.152219-.686-.213207C9.95331.249236 9.88472.23038 9.81498.214371 9.58632.16122 9.35769.120628 9.12386.0874717 9.05299.0771898 8.98325.0634582 8.91178.0548844c-.60219-.0731792-1.21102-.0731792-1.81324 0-.07145.0085738-.14118.0223054-.21209.0325873C6.65266.120628 6.42172.16122 6.19533.214371 6.1256.23038 6.057.249236 5.98841.267523c-.23362.060954-.46226.132024-.68596.213207-.05718.019425-.10919.038884-.16349.05717-.25318.097562-.50124.208017-.74313.330965-.02231.01142-.04515.021133-.06689.032587-.54499.282028-1.05574.625688-1.52228 1.024278-.03487.03027-.06746.06229-.10232.09317-.19055.16766-.37082.34315-.54077.52642-.04686.05031-.09261.10118-.13833.15262-.1673.18786-.32546.38372-.47444.58758-.02057.028-.04515.05258-.06518.08115-.00262.00499-.00493.01015-.00687.01544-1.971667 2.76296-1.971667 6.47282 0 9.23579.00194.0052.00422.0104.00687.0154.01999.0286.04458.0531.06518.0811.14901.2035.30714.3994.47444.5877.04572.0514.09147.1023.13833.1526.17226.184.3525.3595.54077.5264.03486.0309.06745.0629.10232.0932.4649.3982.97394.7419 1.51712 1.0242.02174.0115.04458.0212.06689.0326.24189.1229.48992.2334.74313.331.05718.0206.10919.04.16349.0572.22521.0811.45388.1522.68596.2132.06859.0183.13719.0371.20693.0531.22866.0532.45729.0938.69111.1269.07088.0103.14061.024.21209.0326.60219.0732 1.21101.0732 1.81324 0 .07144-.0086.14118-.0223.21208-.0326.23379-.0331.46474-.0737.69112-.1269.06974-.016.13833-.0348.20698-.0531.2339-.061.4626-.132.6859-.2132.0572-.0195.1092-.0389.1635-.0572.2532-.0976.5012-.208.7431-.331.0223-.0114.0452-.0211.0669-.0326.5432-.2823 1.0522-.626 1.5171-1.0242.0349-.0303.0675-.0623.1024-.0932.1905-.1673.3708-.3428.5407-.5264.0469-.0503.0926-.1012.1384-.1526.1673-.1883.3254-.3842.4744-.5877.0206-.028.0452-.0525.0652-.0811.0026-.005.0049-.0102.0068-.0154 1.9717-2.76293 1.9717-6.4728 0-9.23576zm-.6522 1.08148c.5467.90029.8768 1.91522.9643 2.96485h-3.424c-.042-.68109-.1491-1.35655-.3201-2.01714.9672-.18112 1.9034-.50029 2.7798-.94771zM9.45713 1.2987c.03202.00743.06287.01771.09489.02515.20465.04803.40759.10288.60598.17148.0303.01028.06.0223.0897.03315.1967.06859.3904.14462.5802.22865.0332.01544.0658.03259.099.04803.1817.08651.3593.18005.5327.28066l.1143.06916c.1647.1006.3247.20825.4802.32296.04.02913.08.05717.1195.08915.1524.11431.2984.23682.4378.36754.0366.03315.0744.06574.1104.10004.1463.13889.2858.28578.4207.43783.0171.02.0354.03828.0526.05717-.774.36885-1.594.63222-2.438.78307-.391-1.07481-.90755-2.09972-1.53885-3.05343.07938.01427.16057.02227.23888.03939zm-3.7202 6.12973c.04509-.61845.15039-1.23105.31441-1.82908.64768.07693 1.29934.11508 1.95157.11431.65284-.0002 1.3051-.03932 1.95328-.11719.16371.599.26841 1.21257.31271 1.83196H5.73693zm4.53197 1.14321c-.0451.61845-.1504 1.23105-.31445 1.82906-.64767-.0769-1.29934-.1151-1.95157-.1143-.6528-.0007-1.30503.0374-1.95328.1143-.16355-.59805-.26825-1.21064-.3127-1.82906h4.532zM8.00288 1.51365c.65052.92192 1.18556 1.92014 1.59315 2.97228-.52917.05619-1.06096.08443-1.59315.0846-.53159-.00064-1.0628-.02904-1.59144-.08517.40809-1.05144.94249-2.04932 1.59144-2.97171zM2.8639 3.4719c.13435-.15205.27439-.29895.42072-.43784.03601-.03429.07376-.06688.11033-.10004.14101-.1284.28698-.25091.43787-.36753.03946-.03031.07945-.05717.11948-.08916.15548-.1143.31554-.22198.48017-.32296l.11431-.06916c.1734-.10134.35099-.19492.53276-.28066.03316-.01544.06575-.03258.09891-.04802.18978-.08574.38358-.16177.58022-.22865.02971-.01085.05718-.02288.08973-.03316.19835-.06631.40016-.12117.60594-.17147.03202-.00744.06287-.01772.09546-.02459.07831-.01715.1595-.02515.23895-.03945-.63157.95387-1.14825 1.97899-1.53943 3.054-.84402-.15085-1.66402-.41423-2.438-.78307.01715-.01996.03543-.03825.05258-.05824zm-.72712.99172c.87624.44738 1.81223.76656 2.77928.94771-.17079.66062-.2778 1.33608-.31954 2.01714H1.17245c.08755-1.04963.41767-2.06456.96433-2.96485zm0 7.07288c-.54669-.9003-.87681-1.91524-.96433-2.96486h3.42407c.04194.68108.14912 1.35654.32011 2.01716-.96721.1811-1.90341.5002-2.77985.9477zm4.41188 3.1649c-.03202-.0075-.06286-.0177-.09489-.0252-.20464-.048-.40759-.1029-.60594-.1715-.03031-.0102-.06002-.0223-.08976-.0331-.19665-.0686-.39041-.1446-.58022-.2287-.03316-.0154-.06575-.0325-.09891-.048-.18177-.0865-.35936-.18-.53276-.2806l-.11431-.0692c-.16463-.1006-.3247-.2083-.48018-.323-.04002-.0291-.08001-.0571-.11947-.0891-.15243-.1143-.2984-.2368-.43787-.3676-.03658-.0331-.07432-.0657-.11033-.1-.14634-.1389-.28581-.2858-.42072-.4378-.01715-.02-.03544-.0383-.05259-.0572.77402-.3688 1.59399-.6322 2.43801-.7831.39101 1.0748.90753 2.0997 1.53882 3.0535-.07941-.0143-.16057-.0223-.23888-.0394zm1.45422-.2149c-.65052-.922-1.18556-1.9202-1.59315-2.9723 1.05865-.114 2.12648-.114 3.18513 0l-.00057.0005c-.40803 1.0514-.94243 2.0493-1.59141 2.9718zm5.13902-1.9583c-.1344.152-.2744.2989-.4207.4378-.036.0343-.0738.0669-.1104.1-.141.1289-.2869.2514-.4378.3676-.0395.0303-.0795.06-.1195.0891-.1555.1143-.3156.222-.4802.323l-.1143.0692c-.173.1009-.3506.1945-.5327.2806-.0332.0155-.0658.0326-.099.048-.1897.0858-.3835.1618-.5802.2287-.0297.0108-.0572.0229-.0897.0331-.19836.0664-.40016.1212-.60595.1715-.03202.0075-.06287.0177-.09546.0246-.07831.0172-.1595.0252-.23895.0395.6313-.9538 1.14786-1.9787 1.53886-3.0535.844.1509 1.664.4143 2.438.7831-.0166.0194-.0349.0377-.052.0577zm.7271-.9917c-.8762-.4474-1.8122-.7666-2.7793-.9477.1708-.66065.2778-1.33611.3196-2.01716h3.424c-.0875 1.04959-.4176 2.06456-.9643 2.96486z" fill="#898989"/></svg>
