<svg width="16" height="16" viewBox="0 0 16 16" fill="none" xmlns="http://www.w3.org/2000/svg">
<mask id="mask0" mask-type="alpha" maskUnits="userSpaceOnUse" x="0" y="0" width="16" height="16">
<path fill-rule="evenodd" clip-rule="evenodd" d="M15.814 6.54545H8.18605V9.63636H12.5767C12.1674 11.6 10.4558 12.7273 8.18605 12.7273C5.50698 12.7273 3.34884 10.6182 3.34884 8C3.34884 5.38182 5.50698 3.27273 8.18605 3.27273C9.33953 3.27273 10.3814 3.67273 11.2 4.32727L13.5814 2C12.1302 0.763636 10.2698 0 8.18605 0C3.64651 0 0 3.56364 0 8C0 12.4364 3.64651 16 8.18605 16C12.2791 16 16 13.0909 16 8C16 7.52727 15.9256 7.01818 15.814 6.54545Z" fill="white"/>
</mask>
<g mask="url(#mask0)">
<path d="M-0.744141 12.727V3.27246L5.58144 7.99973L-0.744141 12.727Z" fill="#FBBC05"/>
</g>
<mask id="mask1" mask-type="alpha" maskUnits="userSpaceOnUse" x="0" y="0" width="16" height="16">
<path fill-rule="evenodd" clip-rule="evenodd" d="M15.814 6.54545H8.18605V9.63636H12.5767C12.1674 11.6 10.4558 12.7273 8.18605 12.7273C5.50698 12.7273 3.34884 10.6182 3.34884 8C3.34884 5.38182 5.50698 3.27273 8.18605 3.27273C9.33953 3.27273 10.3814 3.67273 11.2 4.32727L13.5814 2C12.1302 0.763636 10.2698 0 8.18605 0C3.64651 0 0 3.56364 0 8C0 12.4364 3.64651 16 8.18605 16C12.2791 16 16 13.0909 16 8C16 7.52727 15.9256 7.01818 15.814 6.54545Z" fill="white"/>
</mask>
<g mask="url(#mask1)">
<path d="M-0.744141 3.27246L5.58144 7.99973L8.18609 5.78155L17.1163 4.36337V-0.727539H-0.744141V3.27246Z" fill="#EA4335"/>
</g>
<mask id="mask2" mask-type="alpha" maskUnits="userSpaceOnUse" x="0" y="0" width="16" height="16">
<path fill-rule="evenodd" clip-rule="evenodd" d="M15.814 6.54545H8.18605V9.63636H12.5767C12.1674 11.6 10.4558 12.7273 8.18605 12.7273C5.50698 12.7273 3.34884 10.6182 3.34884 8C3.34884 5.38182 5.50698 3.27273 8.18605 3.27273C9.33953 3.27273 10.3814 3.67273 11.2 4.32727L13.5814 2C12.1302 0.763636 10.2698 0 8.18605 0C3.64651 0 0 3.56364 0 8C0 12.4364 3.64651 16 8.18605 16C12.2791 16 16 13.0909 16 8C16 7.52727 15.9256 7.01818 15.814 6.54545Z" fill="white"/>
</mask>
<g mask="url(#mask2)">
<path d="M-0.744141 12.727L10.4186 4.36337L13.3582 4.72701L17.1163 -0.727539V16.727H-0.744141V12.727Z" fill="#34A853"/>
</g>
<mask id="mask3" mask-type="alpha" maskUnits="userSpaceOnUse" x="0" y="0" width="16" height="16">
<path fill-rule="evenodd" clip-rule="evenodd" d="M15.814 6.54545H8.18605V9.63636H12.5767C12.1674 11.6 10.4558 12.7273 8.18605 12.7273C5.50698 12.7273 3.34884 10.6182 3.34884 8C3.34884 5.38182 5.50698 3.27273 8.18605 3.27273C9.33953 3.27273 10.3814 3.67273 11.2 4.32727L13.5814 2C12.1302 0.763636 10.2698 0 8.18605 0C3.64651 0 0 3.56364 0 8C0 12.4364 3.64651 16 8.18605 16C12.2791 16 16 13.0909 16 8C16 7.52727 15.9256 7.01818 15.814 6.54545Z" fill="white"/>
</mask>
<g mask="url(#mask3)">
<path d="M17.116 16.727L5.58115 7.99973L4.09277 6.90882L17.116 3.27246V16.727Z" fill="#4285F4"/>
</g>
</svg>
