<svg width="10" height="20" viewBox="0 0 10 20" fill="none" xmlns="http://www.w3.org/2000/svg">
<path d="M4.79283 3.36691C5.72258 3.36691 6.47629 2.6132 6.47629 1.68346C6.47629 0.753709 5.72258 0 4.79283 0C3.86308 0 3.10938 0.753709 3.10938 1.68346C3.10938 2.6132 3.86308 3.36691 4.79283 3.36691Z" fill="#31C0B2"/>
<path d="M5.37954 4.16959C4.96008 4.08443 4.50401 4.08816 4.09202 4.18528C1.29323 4.51323 0.384458 7.75277 0.641066 10.2229C0.752375 11.2908 2.43583 11.302 2.3234 10.2229C2.23002 9.32268 2.26999 7.96418 2.74847 6.99863C2.74847 8.17223 2.74847 9.34583 2.74847 10.5191C2.74847 10.5605 2.75258 10.5994 2.75444 10.6393C2.75332 10.6584 2.74884 10.6744 2.74884 10.6939C2.74884 13.4874 2.74399 16.2799 2.62857 19.0712C2.5774 20.312 4.5014 20.3072 4.5522 19.0712C4.64259 16.8835 4.66537 14.6946 4.6706 12.5054C4.76174 12.5114 4.85288 12.5114 4.94402 12.5062C4.94962 14.6954 4.97166 16.8842 5.0613 19.0712C5.11248 20.3072 7.03648 20.312 6.98493 19.0712C6.86952 16.2799 6.86541 13.4874 6.86541 10.6939C6.86541 10.6072 6.85383 10.5284 6.83627 10.4526C6.83366 9.23975 6.78734 8.02581 6.80153 6.81374C7.37451 7.78377 7.42681 9.26329 7.32745 10.2221C7.21465 11.3005 8.89848 11.2896 9.00979 10.2221C9.27237 7.70085 8.31989 4.37727 5.37954 4.16959Z" fill="#31C0B2"/>
</svg>
