<svg width="20" height="16" viewBox="0 0 20 16" fill="none" xmlns="http://www.w3.org/2000/svg">
<path d="M12.61 13.4201L10.84 11.6401C10.1616 11.8221 9.44724 11.8223 8.76875 11.6406C8.09026 11.4589 7.47157 11.1018 6.9749 10.6052C6.47824 10.1085 6.12111 9.4898 5.93944 8.81131C5.75777 8.13282 5.75796 7.41845 5.94 6.74006L3.18 3.99006C1.86 4.99006 0.759999 6.29006 -6.80149e-07 7.78006C1.14092 10.0172 3.01299 11.7966 5.30513 12.8226C7.59727 13.8487 10.1715 14.0595 12.6 13.4201L12.61 13.4201ZM16.41 11.5701C17.74 10.5701 18.84 9.27006 19.61 7.78006C18.4683 5.53877 16.593 3.75645 14.2966 2.73015C12.0001 1.70386 9.42135 1.49559 6.99 2.14006L8.76 3.92006C9.43839 3.73802 10.1528 3.73783 10.8312 3.9195C11.5097 4.10117 12.1284 4.45829 12.6251 4.95496C13.1218 5.45163 13.4789 6.07032 13.6606 6.74881C13.8422 7.4273 13.842 8.14167 13.66 8.82006L16.42 11.5701L16.41 11.5701ZM16.16 15.5601L17.58 14.1401L3.44 5.78734e-05L2.02 1.42006L16.16 15.5601Z" fill="#C4C4C4"/>
</svg>
