<svg width="11" height="14"  fill="none" xmlns="http://www.w3.org/2000/svg" viewBox="0 0 11 14"><path d="M8.39973 5.01867l-.39764.04346-1.09349.11949-.29822.03259-3.87692.42367-.17381-1.59053c-.13036-1.19289.76595-2.1962 1.85944-2.3157.89467-.09777 1.64485.32323 2.02998 1.08591.132.28736.3634.56385.66163.53126.29822-.03259.56386-.3634.53127-.66162-.02173-.19882-.132-.28737-.132-.28737C6.88257 1.26125 5.70217.585483 4.40986.726706 2.51025.833701 1.27062 2.3775 1.46616 4.16685l.17381 1.59053-.39763.04345C.54648 5.87688.103755 6.42824.179799 7.12409L.788145 12.691c.076043.6958.627405 1.1385 1.323255 1.0625l7.15739-.7822c.69586-.076 1.13861-.6274 1.06251-1.3232l-.60831-5.56689c-.07605-.69585-.62741-1.13858-1.32326-1.06254zm-2.63626 4.4125l.13036 1.19293c.03259.2982-.1445.5187-.44272.5513-.29823.0326-.51877-.1445-.55136-.4427l-.13036-1.19289c-.41936-.15537-.65077-.43186-.69422-.8295-.06518-.59645.37754-1.1478.97399-1.21298.59645-.06518 1.14781.37754 1.21299.97399.04345.39763-.12277.71758-.49868.95985z" fill="#fff"/></svg>
