<svg width="200" height="27" viewBox="0 0 200 27" fill="none" xmlns="http://www.w3.org/2000/svg">
    <path d="M8.26667 12.3259H17.8926V16.7741H0V14.1037C0 7.91111 12.5407 8.26667 12.5407 5.57778C12.5407 4.44074 11.7889 3.97778 9.17037 3.97778C5.8 3.97778 5.2 5.03333 5.2 6.6H0.233333C0.233333 1.2037 3.48889 0 9.10741 0C15.5148 0 18.1296 1.51111 18.1296 5.21482C18.1296 8.74815 14.437 9.85185 11.4741 10.7444C10.4704 11.0444 8.54444 11.7593 8.26667 12.3259ZM21.263 17.2259C21.263 24.6444 27.5444 26.4444 38.0852 26.4444C47.5963 26.4444 54.1 25.0481 54.1 18.1815C54.1 11.6815 47.8185 11.1296 37.6815 10.5778C30.1889 10.137 28.6481 9.77037 28.6481 7.78519C28.6481 5.87407 30.1926 5.25185 36.6926 5.25185C43.5593 5.25185 46.3889 5.94815 46.3889 8.77778H53C53 2.42222 47.1222 0 37.4259 0C27.8 0 22.037 1.8 22.037 7.45556C22.037 13.2222 26.4815 14.9852 37.6815 15.5C46.0185 15.9037 47.4889 16.2704 47.4889 18.4C47.4889 20.4185 45.3963 21.1926 38.4556 21.1926C30.0815 21.1926 27.8778 19.9444 27.8778 17.2259H21.263ZM96.4815 0.366667H87.5555L76.7963 18.5111L66.0333 0.366667H57.1074V26.0741H63.7185V8.44445L74.4074 26.0741H79.1815L89.8704 8.44445V26.0741H96.4815V0.366667ZM126.948 26.0778H134.259L120.963 0.366667H112.037L98.7778 26.0741H106.052L108.807 20.6H124.196L126.948 26.0778ZM111.267 15.6815L116.519 5.25185L121.733 15.6815H111.267ZM166.604 9.80741C166.604 4.07778 162.6 0.37037 156.759 0.37037H136.559V26.0778H143.17V19.2074H153.822L157.97 26.0741H165.756L161.019 18.4333C164.47 17.0778 166.604 13.9926 166.604 9.80741ZM143.17 5.91482H154.922C156.904 5.91482 159.989 5.91482 159.989 9.80741C159.989 13.663 156.904 13.663 154.922 13.663H143.17V5.91482ZM200 0.366667H168.415V5.91111H180.904V26.0741H187.515V5.91482H200V0.366667Z" fill="#04C0B2"/>
</svg>