<svg width="14" height="14" viewBox="0 0 14 14" fill="none" xmlns="http://www.w3.org/2000/svg">
<g clip-path="url(#clip0)">
<path d="M12.7695 1.5H1.23047C0.550621 1.5 0 2.06283 0 2.75V11.25C0 11.9412 0.554668 12.5 1.23047 12.5H12.7695C13.4437 12.5 14 11.9436 14 11.25V2.75C14 2.06406 13.4516 1.5 12.7695 1.5ZM12.5972 2.33333C12.3458 2.58736 8.01946 6.45703 7.87008 6.60797C7.63766 6.84408 7.32867 6.97408 7 6.97408C6.67133 6.97408 6.36234 6.84406 6.12916 6.60719C6.0287 6.50567 1.75008 2.68428 1.40279 2.33333H12.5972ZM0.820312 11.0804V2.92014L4.3651 6L0.820312 11.0804ZM1.40331 11.6667L4.9467 6.58769L5.54988 7.19722C5.93723 7.59072 6.45222 7.80742 7 7.80742C7.54778 7.80742 8.06277 7.59072 8.44936 7.198L9.0533 6.58769L12.5967 11.6667H1.40331ZM13.1797 11.0804L9.6349 6L13.1797 2.92014V11.0804Z" fill="#9A9A9A"/>
</g>
<defs>
<clipPath id="clip0">
<rect width="14" height="14" fill="white"/>
</clipPath>
</defs>
</svg>
