<svg width="19" height="18" viewBox="0 0 19 18" fill="none" xmlns="http://www.w3.org/2000/svg">
<path d="M14.1237 9.3125L4.8112 0L3.33724 1.47396L5.81641 3.95312L0.457031 9.3125C-0.152344 9.92187 -0.152344 10.9115 0.457031 11.5208L6.1862 17.25C6.48828 17.5573 6.88932 17.7083 7.29036 17.7083C7.69141 17.7083 8.09245 17.5573 8.39453 17.25L14.1237 11.5208C14.7331 10.9115 14.7331 9.92187 14.1237 9.3125ZM2.29557 10.4167L7.29036 5.42708L12.2852 10.4167H2.29557ZM16.6654 11.9792C16.6654 11.9792 14.582 14.2344 14.582 15.625C14.582 16.776 15.5143 17.7083 16.6654 17.7083C17.8164 17.7083 18.7487 16.776 18.7487 15.625C18.7487 14.2344 16.6654 11.9792 16.6654 11.9792Z" fill="black"/>
</svg>
