<svg width="40" height="24" viewBox="0 0 40 24" fill="none" xmlns="http://www.w3.org/2000/svg">
<path d="M28.4073 2.56006C26.4106 -0.18546 22.3167 -0.185463 20.32 2.56006L18.3206 5.30914C17.0455 7.06239 17.0455 9.43761 18.3206 11.1909L21.14 15.0675C21.8418 16.0325 21.6493 17.3806 20.7055 18.1106C19.7219 18.8714 18.3052 18.6709 17.5734 17.6655C16.1514 15.7117 14.555 13.5167 13.134 11.5622C11.1371 8.81574 7.0427 8.81629 5.04543 11.5625L1.77517 16.0591C-0.628356 19.364 1.73242 24 5.81885 24H34.1812C38.2676 24 40.6284 19.364 38.2248 16.0591L28.4073 2.56006Z" fill="#B9B7B7"/>
</svg>
