<svg width="37" height="34" viewBox="0 0 37 34" fill="none" xmlns="http://www.w3.org/2000/svg">
    <path d="M36.2485 0.731195C36.9256 1.1553 36.9666 1.35319 36.9666 3.77499C36.9666 6.19689 36.9256 6.3948 36.2485 6.8094C35.93 7.0167 35.8071 7.0261 34.0418 7.0261C32.2766 7.0261 32.1532 7.0167 31.8352 6.8094C31.3118 6.489 31.1167 6.0555 31.1167 5.2639V4.5761H29.8338H28.5509V8.3454V12.1149H29.8338H31.1167V11.3798C31.1167 10.494 31.3629 9.94739 31.8558 9.66469C32.1634 9.4951 32.3687 9.47629 34.0313 9.47629C35.7247 9.47629 35.889 9.49509 36.2278 9.68359C36.8847 10.0511 36.9666 10.3715 36.9666 12.7274C36.9666 14.5744 36.9358 14.8477 36.7613 15.1963C36.4124 15.9125 36.1767 15.9785 34.0313 15.9785C32.2766 15.9785 32.1532 15.9691 31.8352 15.7617C31.5272 15.5639 31.3016 15.2811 31.1783 14.9136C31.1268 14.7723 30.932 14.7534 28.9615 14.7534C26.6317 14.7534 26.488 14.7252 25.9851 14.2352C25.7285 13.9807 25.7285 13.9807 25.6977 11.7756L25.6669 9.57049H22.9472H20.2377V10.4092C20.2377 11.116 20.2069 11.2856 20.0119 11.5494C19.5501 12.162 19.2832 12.2185 17.21 12.1902C15.4653 12.162 15.3421 12.1525 15.024 11.9452C14.5211 11.606 14.3877 11.295 14.3877 10.3715V9.57049H13.1048H11.8218V17.1564V24.7424H13.0945H14.3671L14.4082 23.8472C14.439 22.9613 14.439 22.9519 14.829 22.6032L15.2087 22.2451H17.3127H19.4166L19.7964 22.6032L20.1864 22.9519L20.2172 23.8942L20.2582 24.8366H22.9677H25.6772V22.8482C25.6772 19.795 25.6259 19.8421 28.869 19.8421H31.0858L31.2091 19.4746C31.3528 19.0317 31.907 18.5511 32.3792 18.4757C32.5638 18.438 33.4361 18.4286 34.3189 18.4475C36.074 18.4757 36.2071 18.5228 36.7 19.1259C36.9053 19.371 36.9155 19.5123 36.9155 21.7268C36.9155 23.9414 36.9053 24.0827 36.7 24.3278C36.197 24.9592 36.1045 24.9778 34.0418 24.9778C32.2969 24.9778 32.1329 24.9592 31.8761 24.78C31.3016 24.3937 31.1682 24.1299 31.1268 23.2723L31.0963 22.4807H29.8236H28.5509V26.25V30.0195H29.8338H31.1167V29.2845C31.1167 28.3986 31.3629 27.8521 31.8558 27.5694C32.1634 27.3999 32.3687 27.3809 34.0313 27.3809C35.7247 27.3809 35.889 27.3999 36.2278 27.5884C36.8847 27.9557 36.9666 28.2761 36.9666 30.6322C36.9666 32.6017 36.9565 32.7336 36.741 33.1292C36.3511 33.8079 36.0943 33.8832 34.0008 33.8832C31.9276 33.8832 31.6607 33.7983 31.3016 33.0633L31.1065 32.658H28.9307C26.4983 32.658 26.3032 32.611 25.8825 31.9796C25.6977 31.6969 25.6772 31.4991 25.6772 29.5672V27.4752H22.9575H20.2377V28.2951C20.2377 29.2375 20.0735 29.6048 19.4987 29.9252C19.1908 30.095 18.9753 30.1137 17.3127 30.1137C15.65 30.1137 15.4345 30.095 15.1266 29.9252C14.5518 29.5955 14.3877 29.2375 14.3877 28.2574V27.3902L12.0682 27.3623L9.7589 27.334L9.3484 26.938L8.9481 26.5424V22.5278V18.5228H7.6242H6.3002L6.2591 19.4652L6.2284 20.4075L5.8384 20.7562L5.4586 21.1143H3.3547H1.25071L0.870967 20.7562L0.480957 20.4075V17.2036V13.9995L0.870967 13.6509L1.25071 13.2928H3.3547H5.4586L5.8384 13.6509L6.2284 13.9995L6.2591 14.9419L6.3002 15.8843H7.6242H8.9481V11.8698C8.9481 7.4879 8.9379 7.59159 9.5434 7.16749C9.8 6.99789 10.0052 6.979 12.1092 6.9508L14.3877 6.9225V6.065C14.3877 5.3582 14.4287 5.1509 14.6134 4.87759C14.9932 4.31219 15.4242 4.19909 17.3127 4.19909C18.7084 4.19909 19.0164 4.2274 19.3858 4.3876C20.0632 4.6608 20.2377 5.0095 20.2377 6.0555V6.9319H22.9575H25.6772V4.94349C25.6772 2.71959 25.7388 2.4746 26.3443 2.1259C26.6522 1.9563 26.8472 1.9374 28.8792 1.9374H31.0963L31.1475 1.6547C31.24 1.2684 31.5066 0.910295 31.8863 0.702995C32.1532 0.542795 32.4202 0.523895 34.052 0.523895C35.8071 0.523895 35.93 0.533395 36.2485 0.731195Z" fill="#05C0B2"/>
</svg>
