<svg width="28" height="29" viewBox="0 0 28 29" fill="none" xmlns="http://www.w3.org/2000/svg">
<path d="M6 8.2L3.16 5.37333L5.04 3.49333L7.86667 6.33333L6 8.2ZM15.3333 0.333332V4.33333H12.6667V0.333332H15.3333ZM24.84 5.37333L22 8.2L20.1333 6.33333L22.96 3.49333L24.84 5.37333ZM4 13V15.6667H0V13H4ZM24 13H28V15.6667H24V13ZM6 25.6667H22C22.7072 25.6667 23.3855 25.9476 23.8856 26.4477C24.3857 26.9478 24.6667 27.6261 24.6667 28.3333H3.33333C3.33333 27.6261 3.61428 26.9478 4.11438 26.4477C4.61448 25.9476 5.29276 25.6667 6 25.6667ZM14 5.66667C16.1217 5.66667 18.1566 6.50952 19.6569 8.00981C21.1571 9.5101 22 11.5449 22 13.6667V24.3333H6V13.6667C6 11.5449 6.84285 9.5101 8.34315 8.00981C9.84344 6.50952 11.8783 5.66667 14 5.66667Z" fill="#F13C3C"/>
</svg>
