<svg width="20" height="18" viewBox="0 0 20 18" fill="none" xmlns="http://www.w3.org/2000/svg">
<path d="M4.75421 2.09167L3.57921 0.908335C0.833374 3.63583 0.833374 5.6125 0.833374 8.16667H1.66671L2.50004 8.11417C2.50004 5.67417 2.50004 4.33 4.75421 2.09167ZM16.42 0.908335L15.2467 2.09167C17.5 4.33 17.5 5.67417 17.5 8.16667L19.1667 8.11417C19.1667 5.6125 19.1667 3.63583 16.42 0.908335ZM10 17.3333C10.5161 17.334 11.0196 17.1738 11.4404 16.8751C11.8613 16.5764 12.1787 16.154 12.3484 15.6667H7.65171C7.82142 16.154 8.13877 16.5764 8.55963 16.8751C8.98049 17.1738 9.48396 17.334 10 17.3333ZM15.8334 11.155V7.33334C15.8334 4.6525 14.0125 2.39417 11.5459 1.715C11.3017 1.1 10.705 0.666668 10 0.666668C9.29504 0.666668 8.69837 1.1 8.45421 1.715C5.98671 2.39417 4.16671 4.6525 4.16671 7.33334V11.155L2.74421 12.5775C2.66667 12.6548 2.60518 12.7466 2.56328 12.8477C2.52137 12.9488 2.49988 13.0572 2.50004 13.1667V14C2.50004 14.221 2.58784 14.433 2.74412 14.5893C2.9004 14.7455 3.11236 14.8333 3.33337 14.8333H16.6667C16.8877 14.8333 17.0997 14.7455 17.256 14.5893C17.4122 14.433 17.5 14.221 17.5 14V13.1667C17.5002 13.0572 17.4787 12.9488 17.4368 12.8477C17.3949 12.7466 17.3334 12.6548 17.2559 12.5775L15.8334 11.155Z" fill="url(#paint0_linear)"/>
<defs>
<linearGradient id="paint0_linear" x1="10" y1="0.666668" x2="10" y2="17.3333" gradientUnits="userSpaceOnUse">
<stop stop-color="#EE2F2F"/>
<stop offset="1" stop-color="#DD3C3C"/>
</linearGradient>
</defs>
</svg>
