<svg width="20" height="20" viewBox="0 0 20 20" fill="none" xmlns="http://www.w3.org/2000/svg">
    <path d="M16.8387 7.95667L16.0584 7.82434C15.9889 7.63098 15.9104 7.44128 15.8236 7.25684L16.2831 6.61401C16.6829 6.05237 16.6187 5.29382 16.132 4.81189L15.1944 3.87415C14.9293 3.60913 14.578 3.46313 14.2052 3.46313C13.9116 3.46313 13.6309 3.55359 13.3953 3.72314L12.75 4.18274C12.5504 4.08838 12.3479 4.005 12.1441 3.93298L12.015 3.16846C11.9015 2.49133 11.3207 2 10.6339 2H9.30922C8.62257 2 8.04176 2.49133 7.92848 3.16711L7.79286 3.96155C7.60133 4.03149 7.41249 4.11096 7.22755 4.19971L6.594 3.74341C6.35645 3.57239 6.07459 3.48206 5.77882 3.48206C5.40235 3.48206 5.05091 3.6283 4.78882 3.89392L3.849 4.83069C3.36365 5.31604 3.30005 6.07397 3.69788 6.63281L4.1648 7.28882C4.07874 7.474 4.00135 7.66455 3.93299 7.85901L3.16834 7.98804C2.49133 8.10168 2 8.6825 2 9.36914V10.6938C2 11.3805 2.49133 11.9613 3.16712 12.0747L3.96155 12.2102C4.0315 12.4019 4.11109 12.5908 4.19971 12.7756L3.74512 13.408C3.34534 13.9696 3.40955 14.7283 3.89624 15.2101L4.83387 16.1478C5.09888 16.4128 5.4502 16.5588 5.82301 16.5588C6.11659 16.5588 6.39735 16.4684 6.63282 16.299L7.28883 15.832C7.46119 15.9121 7.6399 15.9855 7.82338 16.0515L7.95338 16.8317C8.06703 17.5087 8.64784 18 9.33449 18H10.6622C11.3489 18 11.9298 17.5087 12.0432 16.8325L12.1756 16.0521C12.3689 15.9827 12.5586 15.9042 12.7431 15.8174L13.3838 16.2754C13.6214 16.4464 13.9032 16.5369 14.199 16.5369C14.5717 16.5369 14.923 16.3909 15.188 16.1259L16.1256 15.1881C16.6111 14.7028 16.6746 13.9448 16.2768 13.386L15.8168 12.7401C15.9059 12.5514 15.9846 12.3618 16.0524 12.1733L16.8316 12.0435C17.5086 11.9298 17.9999 11.349 17.9999 10.6624V9.34033C18.0076 8.65295 17.5198 8.07141 16.8387 7.95667ZM17.0624 10.6624C17.0624 10.8893 16.9001 11.0813 16.6769 11.1188L15.6435 11.291C15.4528 11.3228 15.299 11.4573 15.2417 11.6422C15.1499 11.9397 15.0238 12.2438 14.8672 12.5455C14.7786 12.7157 14.7928 12.9185 14.9041 13.0745L15.5131 13.9297C15.6444 14.1143 15.6233 14.3647 15.4628 14.5253L14.5252 15.4629C14.4359 15.5521 14.3231 15.5994 14.199 15.5994C14.1011 15.5994 14.0087 15.5701 13.9303 15.5137L13.0788 14.905C12.9221 14.7926 12.7185 14.7784 12.5475 14.8679C12.2611 15.0178 11.9568 15.1439 11.643 15.2424C11.4599 15.2998 11.3262 15.4531 11.2943 15.6418L11.1188 16.6764C11.0813 16.9001 10.8893 17.0625 10.6622 17.0625H9.33449C9.10744 17.0625 8.91554 16.9001 8.87807 16.677L8.70582 15.6436C8.67433 15.4541 8.54103 15.3005 8.35792 15.2427C8.0486 15.145 7.75404 15.0239 7.48219 14.8827C7.40809 14.8442 7.32789 14.8253 7.24806 14.8253C7.14479 14.8253 7.042 14.8571 6.95399 14.9197L6.08717 15.5366C6.00904 15.5929 5.92017 15.6213 5.82301 15.6213C5.69886 15.6213 5.58607 15.5742 5.49683 15.4849L4.5575 14.5457C4.39722 14.387 4.37684 14.1372 4.50757 13.9535L5.11292 13.1115C5.22681 12.9534 5.24073 12.7483 5.14893 12.5758C4.995 12.2871 4.86744 11.9844 4.76966 11.6759C4.7118 11.494 4.55909 11.3611 4.3711 11.329L3.32349 11.1504C3.09986 11.1128 2.9375 10.9208 2.9375 10.6938V9.36914C2.9375 9.14221 3.09986 8.9502 3.32386 8.9126L4.34461 8.74036C4.53541 8.70825 4.68909 8.57336 4.74586 8.38782C4.84217 8.07263 4.96607 7.76782 5.11414 7.48218C5.20228 7.31238 5.18812 7.11011 5.07715 6.95398L4.46167 6.08923C4.3302 5.90466 4.35132 5.65417 4.51136 5.49414L5.45216 4.55652L5.45557 4.55298C5.54017 4.46692 5.65491 4.41956 5.77882 4.41956C5.87672 4.41956 5.96925 4.44885 6.04615 4.50427L6.89186 5.11304C7.05018 5.22705 7.2555 5.24072 7.42738 5.14893C7.71608 4.995 8.01881 4.86743 8.32692 4.76978C8.5088 4.71204 8.64174 4.55957 8.67409 4.37109L8.8528 3.32349C8.89027 3.09985 9.08229 2.9375 9.30934 2.9375H10.6341C10.861 2.9375 11.053 3.09985 11.0906 3.32385L11.2628 4.34497C11.2951 4.53589 11.4302 4.68945 11.6159 4.74609C11.9324 4.84229 12.2481 4.97217 12.5543 5.13232C12.7245 5.22119 12.9273 5.20728 13.084 5.09583L13.9412 4.48535C14.0192 4.42908 14.1081 4.40063 14.2053 4.40063C14.3294 4.40063 14.4422 4.44775 14.5315 4.53711L15.4707 5.47632C15.631 5.63501 15.6515 5.88477 15.5199 6.06946L14.9107 6.92188C14.7989 7.07861 14.7849 7.28198 14.8742 7.45239C15.0242 7.73877 15.1502 8.04309 15.2488 8.35706C15.3063 8.54016 15.4595 8.67371 15.6482 8.70557L16.6819 8.88098L16.6828 8.8811C16.9058 8.91858 17.0656 9.10779 17.0624 9.33105V10.6624Z" fill="#008B81"/>
    <path d="M10 7C8.34579 7 7 8.34579 7 10C7 11.6542 8.34579 13 10 13C11.6542 13 13 11.6542 13 10C13 8.34579 11.6542 7 10 7ZM10 12.0959C8.84433 12.0959 7.9041 11.1557 7.9041 10C7.9041 8.84433 8.84433 7.9041 10 7.9041C11.1557 7.9041 12.0959 8.84433 12.0959 10C12.0959 11.1557 11.1557 12.0959 10 12.0959Z" fill="#008B81"/>
</svg>
