<svg width="27" height="27" viewBox="0 0 27 27" fill="none" xmlns="http://www.w3.org/2000/svg">
<path d="M11.1667 20.3333L5.33333 14.5L6.98417 12.8492L11.1667 17.0317L20.0158 8.1825L21.6667 9.83333L11.1667 20.3333Z" fill="white"/>
<path d="M13.5 0C6.04125 0 0 6.04125 0 13.5C0 20.9587 6.04125 27 13.5 27C20.9587 27 27 20.9587 27 13.5C27 6.04125 20.9587 0 13.5 0ZM13.5 24.3C7.533 24.3 2.7 19.467 2.7 13.5C2.7 7.533 7.533 2.7 13.5 2.7C19.467 2.7 24.3 7.533 24.3 13.5C24.3 19.467 19.467 24.3 13.5 24.3Z" fill="white"/>
</svg>
