<svg width="50" height="50" viewBox="0 0 50 50" fill="none" xmlns="http://www.w3.org/2000/svg">
    <path d="M15 31.875H21.25V39H29.5833V31.875H35.8333L25.4167 20L15 31.875Z" fill="black"/>
    <path d="M49.265 8.66316L41.7675 0.771055C41.5357 0.526206 41.2602 0.332028 40.9569 0.199698C40.6536 0.0673688 40.3284 -0.00049855 40 2.75704e-06H10C9.67164 -0.00049855 9.34643 0.0673688 9.04309 0.199698C8.73975 0.332028 8.46427 0.526206 8.2325 0.771055L0.735006 8.66316C0.501425 8.90704 0.316176 9.19732 0.190005 9.51715C0.0638332 9.83698 -0.000748346 10.18 6.54212e-06 10.5263V44.7368C6.54212e-06 47.6395 2.24251 50 5.00001 50H45C47.7575 50 50 47.6395 50 44.7368V10.5263C50.0007 10.18 49.9362 9.83698 49.81 9.51715C49.6838 9.19732 49.4986 8.90704 49.265 8.66316ZM11.035 5.26316H38.965L41.465 7.89474H8.535L11.035 5.26316ZM5.00001 44.7368V13.1579H45L45.005 44.7368H5.00001Z" fill="black"/>
</svg>
