<svg width="21" height="21" viewBox="0 0 21 21" fill="none" xmlns="http://www.w3.org/2000/svg">
<path d="M8.50193 0.923021C3.29987 1.87326 -0.350706 6.80671 0.340295 11.9484C0.95307 16.5695 4.44719 20.045 9.08863 20.6698C11.1877 20.9432 13.5997 20.4095 15.5162 19.264C16.5593 18.6261 18.1499 17.0381 18.7887 15.9967C19.9491 14.0832 20.4576 11.7662 20.1838 9.61838C20.1055 8.9415 20.0012 8.3297 19.9752 8.26461C19.936 8.21254 19.7274 8.22556 19.5058 8.30366C19.219 8.4078 19.1407 8.49892 19.2059 8.65512C19.2581 8.77227 19.3233 9.51424 19.3624 10.3213C19.4276 12.0526 19.2059 13.2501 18.541 14.6299C18.1238 15.5021 17.2112 16.8688 17.0417 16.8688C17.0026 16.8688 16.8591 16.5695 16.7288 16.205C16.5984 15.8535 16.2333 15.2157 15.9335 14.7991C14.6036 12.9898 12.661 12.0526 10.262 12.0526C7.44587 12.0526 5.20338 13.4063 4.05606 15.8015C3.76923 16.3872 3.52151 16.8558 3.48239 16.8558C3.44328 16.8688 3.19556 16.5825 2.93481 16.231C-0.0378 12.2608 0.731428 6.53335 4.64276 3.53944C6.455 2.14662 8.35852 1.56085 10.6923 1.67801C11.5006 1.73007 12.335 1.79516 12.5567 1.84723C12.8957 1.91231 12.9739 1.87326 13.1043 1.58689C13.2477 1.27448 13.2216 1.23543 12.9608 1.13129C12.4915 0.949055 10.8618 0.727766 10.1056 0.740783C9.72748 0.740783 9.0104 0.831902 8.50193 0.923021ZM11.8135 13.0288C13.6127 13.4584 15.1512 14.682 15.8552 16.2571C16.481 17.6238 16.481 17.5457 15.6466 18.1315C13.8996 19.3551 12.309 19.8628 10.262 19.8628C8.2151 19.8628 6.62449 19.3551 4.87743 18.1315C4.02998 17.5457 4.04302 17.5978 4.68187 16.2701C5.95957 13.6406 8.85395 12.3389 11.8135 13.0288Z" fill="#02BD4D"/>
<path d="M16.9112 2.68084V3.7222H15.8682H14.8252V4.11271V4.50322H15.8682H16.9112V5.54458V6.58594H17.3676H17.8239V5.54458V4.50322H18.8669H19.9099V4.11271V3.7222H18.8669H17.8239V2.68084V1.63948H17.3676H16.9112V2.68084Z" fill="#02BD4D"/>
<path d="M8.72348 4.06074C7.58919 4.62047 6.96338 5.66183 6.96338 6.98956C6.96338 8.51255 7.84995 9.74917 9.23195 10.1527C10.0924 10.413 10.4314 10.413 11.2789 10.1657C13.4171 9.52788 14.2515 6.97655 12.9607 5.06305C12.0872 3.76135 10.2098 3.31877 8.72348 4.06074ZM11.6961 4.9459C13.039 5.83105 13.065 8.00489 11.7482 9.0072C11.305 9.34564 11.1615 9.38469 10.2619 9.38469C9.36233 9.38469 9.21891 9.34564 8.77563 9.0072C7.19806 7.80964 7.60223 5.21925 9.45359 4.62047C10.0533 4.42522 11.1485 4.58142 11.6961 4.9459Z" fill="#02BD4D"/>
</svg>
