<svg width="17" height="12" viewBox="0 0 17 12" fill="none" xmlns="http://www.w3.org/2000/svg">
<path d="M8.43333 0C4.6 0 1.32633 2.38433 0 5.75C1.32633 9.11567 4.6 11.5 8.43333 11.5C12.2667 11.5 15.5403 9.11567 16.8667 5.75C15.5403 2.38433 12.2667 0 8.43333 0ZM8.43333 9.58333C6.31733 9.58333 4.6 7.866 4.6 5.75C4.6 3.634 6.31733 1.91667 8.43333 1.91667C10.5493 1.91667 12.2667 3.634 12.2667 5.75C12.2667 7.866 10.5493 9.58333 8.43333 9.58333ZM8.43333 3.45C7.16067 3.45 6.13333 4.47733 6.13333 5.75C6.13333 7.02267 7.16067 8.05 8.43333 8.05C9.706 8.05 10.7333 7.02267 10.7333 5.75C10.7333 4.47733 9.706 3.45 8.43333 3.45Z" fill="#898989"/>
</svg>
