<svg width="50" height="50" viewBox="0 0 50 50" fill="none" xmlns="http://www.w3.org/2000/svg">
    <path d="M48.7222 6.19444L44.8611 1.52778C44.1111 0.583333 42.9722 0 41.6667 0H8.33333C7.02778 0 5.88889 0.583333 5.11111 1.52778L1.27778 6.19444C0.472222 7.13889 0 8.38889 0 9.72222V44.4444C0 47.5 2.5 50 5.55556 50H44.4444C47.5 50 50 47.5 50 44.4444V9.72222C50 8.38889 49.5278 7.13889 48.7222 6.19444ZM9 5.55556H41L43.25 8.25H6.77778L9 5.55556ZM5.55556 44.4444V13.8889H44.4444V44.4444H5.55556ZM29.0278 19.4444H20.9722V27.7778H13.8889L25 38.8889L36.1111 27.7778H29.0278V19.4444Z" fill="black"/>
</svg>
